<svg xmlns="http://www.w3.org/2000/svg" viewBox="0 0 1124.787 402.556" fill="currentColor"><path d="M164.65 401.07c-5.612-2.056-9.707-5.656-12.534-11.017-2.41-4.57-2.565-5.59-2.526-16.6.036-10.529.305-12.403 2.622-18.289 9.11-23.139 30.671-43.605 73.606-69.868 9.725-5.948 12.416-8.455 12.416-11.56 0-2.997-2.575-2.827-9.47.623-5.137 2.569-7.876 3.364-11.536 3.349-12.734-.055-21.224-10.227-21.224-25.427 0-23.657 20.274-63.945 44.479-88.386 24.534-24.774 50.765-30.183 59.263-12.22 2.256 4.769 2.478 6.135 2.098 12.905-.234 4.164-1.192 9.957-2.128 12.873-1.691 5.268-1.69 5.319.317 7.869 1.11 1.411 2.018 3.472 2.018 4.578s-2.384 6.012-5.298 10.901c-6.537 10.965-19.102 36.396-19.102 38.66 0 1.148.723 1.667 2.322 1.667 4.281 0 20.125-20.409 29.92-38.542 4.897-9.063 7.424-11.857 11.457-12.664 3.513-.702 7.52 2.213 8.371 6.092 1.191 5.423-3.524 16.734-14.108 33.844-12.496 20.201-28.378 36.851-52.58 55.123l-7.578 5.722-7.397 18.148c-18.888 46.342-37.797 76.436-54.885 87.35-9.674 6.178-20.094 7.957-28.524 4.869zm18.076-26.137c3.746-1.937 9.768-8.795 15.663-17.84 6.571-10.081 19.438-35.665 19.026-37.83-.68-3.564-4.029-2.153-12.218 5.146-15.221 13.566-26.731 28.503-29.961 38.878-2.133 6.855-2.17 8.217-.294 10.895 1.687 2.41 4.122 2.644 7.784.75zm53.008-129.11c5.989-5.602 12.905-14.846 18.046-24.119 2.452-4.422 2.608-5.227 1.688-8.675-1.212-4.54-.53-6.13 5.253-12.258 5.312-5.629 8.966-11.012 12.274-18.085 4.987-10.661 4.605-14.017-1.425-12.504-5.25 1.317-20.438 17.889-30.739 33.54-10.904 16.566-17.61 32.588-17.61 42.066v5.66h3.25c2.678 0 4.31-.99 9.263-5.625zm-229.53 73.15c-4.615-2.437-6.687-6.519-6.124-12.066.667-6.582 5.435-17.632 21.093-48.879 7.888-15.742 14.342-29.164 14.342-29.826 0-2.447-3.073-2.243-9.271.614-13.077 6.027-20.761 2.171-20.761-10.42 0-8.66.418-8.966 32.285-23.731l22.616-10.48 15.126-23.293c40.46-62.306 72.08-105.05 94.16-127.28 13.31-13.4 17.51-16.225 24.023-16.154 6.635.072 11.342 2.538 13.713 7.186 3.31 6.489 2.128 15.973-5.11 40.992-9.143 31.606-17.724 70.871-16.298 74.585.437 1.138 2.3 1.432 9.072 1.432 10.279 0 13.41 1.291 15.03 6.195 2.37 7.182-.662 15.604-6.752 18.753-1.55.802-6.902 1.89-11.892 2.417-4.99.528-9.608 1.472-10.261 2.097-1.399 1.338-2.992 10.817-6.248 37.17-4.054 32.822-5.47 50.437-5.637 70.084l-.16 18.937-6.754 6.252-6.753 6.253-3.992-1.954c-7.845-3.84-10.95-11.964-11.695-30.594-.594-14.867.634-33.41 4.071-61.47 1.296-10.581 2.598-22.723 2.892-26.981.496-7.171.404-7.742-1.25-7.742-.98 0-7.27 2.05-13.974 4.557-6.705 2.507-20.812 7.668-31.351 11.47-17.598 6.348-19.347 7.182-21.435 10.223-3.17 4.619-36.89 70.327-43.11 84.008-8.275 18.201-13.944 26.185-20.292 28.578-3.635 1.37-5.246 1.208-9.307-.936zm124.1-161.01c11.614-3.946 21.638-7.655 22.276-8.244 1.033-.952 19.017-71.114 19.017-74.193 0-.684-.696-1.51-1.546-1.837-3.504-1.345-17.324 16.558-45.501 58.942-17.348 26.095-19.673 30.205-18.021 31.857 1.1 1.1 2.288.775 23.775-6.526zm385.2 128.77c-3.888-1.694-7.658-6.392-8.954-11.157-2.553-9.395 5.664-34.259 28.907-87.47 5.412-12.388 9.85-23.496 9.864-24.684.014-1.189-.852-3.095-1.924-4.236-5.052-5.377-5.87-12.921-1.941-17.914 2.72-3.458 5.19-4.558 11.634-5.178l5.63-.542 3.473-6.57c4.879-9.228 24.208-50.675 25.126-53.875 1.316-4.589-.113-5.504-5.567-3.567-5.788 2.056-10.578 1.093-14.97-3.01-5.437-5.08-3.683-13.021 4.762-21.55 5.483-5.54 12.299-10.633 24.088-18.007l9.854-6.163 1.778-6.493c.979-3.572 2.82-7.859 4.093-9.528C615.792.975 625.03.885 630.747 6.6c3.317 3.318 4.288 3.343 15.124.395 32.913-8.955 59.86-.87 71.09 21.327 8.322 16.449 7.224 39.817-2.883 61.386-17.731 37.837-55.486 67.658-99.76 78.795-7.6 1.912-12.803 2.523-24.85 2.92-9.523.315-15.557.898-16.095 1.555-.723.884-10.15 23.635-28.236 68.153-1.993 4.904-5.617 15.04-8.054 22.523-5.43 16.671-7.154 20.204-11.013 22.557-3.489 2.127-6.539 2.278-10.567.524zm103.75-147.82c22.079-7.426 43.663-22.953 60.945-43.843 13.202-15.958 19.799-29.521 20.478-42.101.387-7.172.279-7.682-2.432-11.394-1.845-2.527-4.749-4.825-8.302-6.57-5.224-2.565-6.022-2.68-18.134-2.61-14.35.083-22.253 1.945-36.811 8.67l-7.858 3.631-14.908 35.575c-22.174 52.916-24.806 59.562-24.203 61.133.465 1.211 2.245 1.362 11.43.97 8.95-.38 12.462-.995 19.795-3.461zm-304.8 146.32c-3.146-1.918-4.921-5.096-4.88-8.738.012-1.177 2.823-5.25 6.595-9.558 12.772-14.59 25.329-34.084 31.374-48.71 5.982-14.472 6.383-25.386 1.287-35.073l-2.7-5.132 2.948-4.812c7.561-12.346 16.678-21.179 23.376-22.65 4.01-.88 10.61 2.329 12.077 5.871.963 2.325.924 3.674-.22 7.528-.988 3.324-1.103 4.988-.395 5.696 1.399 1.399 3.278.23 11.284-7.012 9.29-8.405 20.996-17.171 25.758-19.29 3.546-1.577 4.28-1.62 7.134-.428 5.278 2.205 9.127 9.195 7.64 13.876-.374 1.18-5.797 7.452-12.05 13.936-11.767 12.203-14.362 15.735-13.4 18.244 1.442 3.756 7.798 1.188 23.41-9.46 7.45-5.08 10.922-6.9 13.165-6.9 6.226 0 10.169 5.635 8.173 11.682-1.484 4.495-8.893 12.427-18.065 19.338-13.151 9.91-23.423 14.027-34.998 14.027-8.98 0-14.03-2.566-17.208-8.745-1.436-2.789-2.884-4.394-3.965-4.394-2.068 0-13.452 13.628-22.343 26.747-8.108 11.963-14.93 24.167-20.325 36.36-2.342 5.294-5.324 11.242-6.626 13.218-3.96 6.012-11.284 7.894-17.047 4.38zm628.1-1.24c-5.14-2.012-6.78-3.35-9.652-7.877-7.004-11.038-9.307-28.68-5.896-45.156 1.104-5.334 2.837-11.88 3.85-14.546 2.226-5.855 2.31-7.752.38-8.493-.942-.362-2.622.688-4.724 2.95-4.191 4.511-15.003 20.387-19.648 28.85-7.412 13.506-10.86 18.276-14.93 20.662-5.042 2.954-8.737 2.95-13.108-.016-5.08-3.448-6.369-3.07-8.536 2.5-2.305 5.926-6.093 8.293-13.277 8.293-11.032 0-21.489-8.938-25.285-21.612-2.214-7.392-4.212-7.514-9.732-.596-17.422 21.833-41.663 20.156-48.991-3.39-5.472-17.58 3.743-49.24 22.674-77.905 22.569-34.173 53.857-50.258 72.632-37.34 7.042 4.845 9.368 11.951 6.997 21.37-.835 3.313-.816 5.341.08 8.838 1.44 5.617.573 8.76-5.149 18.663-4.681 8.105-11.502 24.62-14.591 35.33-3.015 10.454-3.088 23.09-.157 27.198 1.151 1.614 3.56 3.63 5.351 4.48 1.792.851 4.539 2.625 6.104 3.942 4.192 3.527 6.04 2.725 6.736-2.922.838-6.809 4.366-15.074 17.238-40.391 21.505-42.297 32.948-60.03 40.85-63.301 3.883-1.609 8.561-.48 11.732 2.83 2.195 2.29 2.76 3.83 3.093 8.434.536 7.42 1.817 7.382 11.743-.344 13.833-10.767 23.934-15.343 30.105-13.639 6.132 1.693 9.358 8.81 7.223 15.936-.622 2.077-6.878 11.333-14.522 21.49-14.518 19.287-22.005 32.31-26.453 46.006-2.26 6.96-2.6 9.54-2.672 20.226-.08 12.168-.06 12.288 3.094 18.3 4.755 9.064 5.107 10.93 2.915 15.456-2.908 6.01-9.034 8.295-15.475 5.775zm-131.25-54.343c6.637-6.277 11.982-15.003 24.87-40.607 5.716-11.356 11.824-22.653 13.572-25.106 3.616-5.072 3.791-5.977 1.626-8.37-3.267-3.61-10.643-1.78-18.745 4.65-10.858 8.62-27.51 36.313-32.131 53.442-2.203 8.163-2.64 18.013-.877 19.776 2.505 2.504 6.356 1.257 11.685-3.783zm-361.64 46.24c-9.042-5.513-7.73-17.134 5.917-52.447 5.73-14.824 23.353-50.243 30.314-60.922 6.193-9.5 13.185-17.499 17.043-19.494 4.35-2.25 10.57.638 12.782 5.935 1.816 4.347.824 6.99-8.762 23.351-18.568 31.69-28.636 55.156-36.12 84.192-1.611 6.255-3.789 12.94-4.838 14.857-3.294 6.016-10.584 8.037-16.336 4.53zm252.82-13.14c-4.2-1.35-8.931-5.45-11.205-9.713-3.208-6.015-2.85-16.734 1.037-31.001 13.662-50.156 60.864-142.93 94.372-185.49 14.588-18.528 25.424-28.612 36.255-33.736 7.256-3.433 12.669-3.7 18.432-.91 5.1 2.468 7.455 5.454 9.294 11.782 1.305 4.487 1.308 5.771.036 12.52-3.781 20.047-20.465 50.43-47.713 86.887-16.518 22.101-23.497 29.961-50.868 57.287l-26.423 26.38-4.485 13.511c-5.118 15.417-6.033 22.712-2.905 23.16 4.863.696 16.734-12.535 27.196-30.31 7.335-12.463 12.247-16.1 18.337-13.578 3.752 1.555 5.917 5.795 5.122 10.033-2.169 11.563-24.563 43.58-37.676 53.864-10.689 8.384-21.166 11.773-28.806 9.319zm62.771-134.48c25.411-29.57 58.511-82.603 58.574-93.848.013-2.226-.36-2.58-2.713-2.58-6.915 0-28.454 29.87-51.43 71.324-11.89 21.453-17.091 31.953-16.539 33.393 1.153 3.005 4.187.928 12.107-8.289zm247.66 132.99c-9.788-3.598-15.554-12.58-16.175-25.199-.998-20.279 6.74-46.113 23.76-79.314 6.428-12.539 6.62-14.35 1.633-15.413-6.721-1.431-12.417-8.205-11.043-13.133 2.053-7.36 4.88-8.908 22.764-12.464l13.397-2.663 5.721-8.943c16.086-25.145 30.543-42.69 37.457-45.456 3.544-1.417 4.056-1.413 7.154.056 1.835.871 4.13 2.884 5.099 4.474 3.603 5.91 1.708 12.182-7.535 24.945-5.08 7.014-5.826 8.618-4.792 10.293.608.984 1.678.983 5.779-.004 2.768-.666 8.2-1.242 12.071-1.281 7.77-.079 11.998 1.518 14.622 5.522 2.041 3.116 2.605 8.914 1.134 11.657-2.361 4.403-5.568 5.78-17.719 7.613-6.413.967-16.725 3.318-22.914 5.225-6.19 1.907-13.08 3.91-15.31 4.45-3.89.94-4.314 1.412-10.237 11.365-18.804 31.603-34.039 69.304-34.039 84.237 0 6.518 1.159 8.265 5.48 8.265 7.741 0 17.558-9.416 31.313-30.031 4.65-6.968 9.32-13.613 10.38-14.767 4.305-4.685 13.278-3.292 15.647 2.428.989 2.386.927 3.616-.378 7.546-3.463 10.426-21.055 34.782-33.917 46.956-10.5 9.937-19.408 14.5-28.926 14.813-4.067.133-8.106-.322-10.427-1.175zm-493.48-152.54c-3.389-2.665-5.27-6.6-5.27-11.024 0-4.694 6.053-17.007 11.278-22.942 4.933-5.604 12.799-9.567 17.31-8.72 4.34.814 8.567 4.505 9.946 8.684 2.934 8.888-6.063 25.669-17.836 33.269-5.255 3.393-11.66 3.697-15.428.733z"/></svg>
