<svg xmlns="http://www.w3.org/2000/svg" viewBox="0 0 5236 1194" fill="currentColor"><path d="M2519 302.3c-1.9.8-4.6 1.9-6 2.4-1.4.6-5.3 3.2-8.8 5.7-25.4 18.7-59.5 68.6-92.1 134.6-25.7 51.9-40.6 92.4-41.8 113.7-.5 8.6-.4 9.6 2.1 14.8 5.9 11.9 18.3 16.1 32.1 10.7 16.3-6.3 43.5-37.5 53.2-61.2 3.3-8.2 3.1-12.4-1.1-16.6-2.8-2.8-4.1-3.4-7.8-3.4-5.9 0-10 2.8-14.4 9.7-13.8 21.5-18.9 28.6-23.5 32.7-9.4 8.4-9.5 6.8-1.8-16.8l4.9-14.9 26.8-26.6c27.1-26.9 38.6-39.7 54.9-61.6 32.2-43.2 49.7-76.1 51.9-97.7 1.1-10.8-2.8-19.2-10.9-23.8-4.7-2.7-13-3.5-17.7-1.7zm-5 37.2c0 .3-1.3 4-3 8.3-8.3 21.5-42.7 73.4-63.4 95.7-5.6 6.1-5.3 5.2 4.1-12.8 19.5-36.8 41.2-71 53.3-84 6.4-6.8 9-8.9 9-7.2zm-221.6-34.1c-4.3 1.9-7.1 6.2-9.2 14.2-1.5 6-2.1 7-5.7 9.2-23.7 14.8-34.9 24.2-39.1 32.8-2 4.1-2.5 6.3-2.1 9.1.8 4.4 5.7 9.8 10.5 11.4 3.4 1.1 10 .8 13.5-.6 1-.4 1.7-.3 1.7.4 0 1.3-16.7 37.5-24.6 53.2l-5.3 10.6-5.2.6c-6.7.8-11.8 3.5-14.7 7.8-3.4 4.9-2.7 12.3 1.6 18.5 1.8 2.4 3.2 4.9 3.2 5.3 0 .5-4.1 10.3-9.1 21.8-26.8 61.1-35.6 88.6-31.9 99.7 4.6 14 22.5 17.2 29.5 5.3.9-1.5 4.3-10.6 7.4-20 3.2-9.5 12.9-34.5 21.6-55.7 8.6-21.2 15.9-39 16.1-39.5.3-.6 6-1 14.2-1 22.1-.1 39.8-4.7 63.7-16.5 17.3-8.6 30-17.6 42.6-30 19.8-19.7 32.7-41.4 37.5-63.3 2.1-9.6 2.1-26.4 0-34.6-8.6-33.6-43.9-47.4-87-34l-6.9 2.1-2.1-2.5c-4.5-5.4-13.4-7.2-20.2-4.3zm78.3 36.8c6.1 2.2 10.9 7.2 11.9 12.4 4.4 23.7-35 72.5-72.7 89.8-9.7 4.4-15.8 6.5-24.7 8.2-8.8 1.7-18.2 1.9-18.2.3 0-.6 7.9-20 17.6-43.2 9.7-23.2 19-45.5 20.7-49.6l3-7.3 7.2-3.3c21.1-9.8 41.3-12.5 55.2-7.3zm849.3-23.8c-20.9 6.3-43.3 22.3-72.2 51.6-51.2 51.9-84 109.4-86.5 151.6-1 17.3 3.3 30.8 12.9 41 7.7 8.2 13.2 10.7 24.5 11.2 10.8.5 19.2-1.6 31.1-7.8 3.9-2 7.2-3.4 7.2-2.9s-2.5 5.5-5.6 11.1c-9.1 16.6-19.2 37.3-23.9 48.7-12.8 31.3-11.3 49.7 4.2 51.8 5.8.8 11.7-1.2 15.1-5.1 3.1-3.6 4.2-6.1 9.2-22.1 4.7-14.8 14-36.3 26-60 12.5-24.7 19.1-36.2 31.1-54.5 11.5-17.6 13.2-21.6 12.7-29.1-.3-4.8-1-6.5-3.3-8.9-1.6-1.7-4.6-3.5-6.6-4.1-5.1-1.6-10.2.9-21.4 10.5-38.6 32.9-52.1 41.7-64.7 41.8-15 .1-19.5-15.6-11.4-39.7 11.8-35.1 44.2-83.1 80.6-119.6 29.1-29.2 56.7-46.6 63.2-40.1.7.7 1.2 3.2 1.1 5.5-.6 16.3-27.6 53.5-53.4 73.5-8.5 6.7-11.9 11.5-11.9 17.1 0 8.2 5.1 13.3 14.1 13.9 4.7.4 6.6 0 11-2.3 18.3-9.1 45.4-39.1 57-63 6.2-12.8 8.9-23.2 8.9-34.7 0-29.3-20.4-44.1-49-35.4z"/><path d="M3062 319.6c-20.4 11.6-63.5 58.9-115 125.9-8.9 11.5-17.1 21.5-18.3 22.1-1.2.7-10.5 4.2-20.7 7.9-22.8 8.3-30.5 11.9-32.7 15.1-2.2 3.4-2.2 12.9 0 17.1 3.3 6.1 10.7 7.9 20.1 4.7 2.6-.9 4.9-1.4 5.2-1.1.2.2-3.3 6.5-8 14-12 19.2-21.7 35.8-26.7 45.7-3.5 6.9-4.3 9.6-4.3 14.2-.1 4.7.3 6.1 2.4 8.3 8 8.6 18.1 7 27.1-4.1 2-2.5 6.2-9.1 9.4-14.7s15.9-26.4 28.1-46.3l22.4-36 29.8-8.2c30.6-8.4 32.2-8.8 32.2-7.4 0 .5-2.3 11.9-5 25.3-8.6 42-11.6 72.5-8.1 83.9 3.1 10.5 14.3 16.5 22.7 12.4 6.8-3.4 7.6-5.5 8.5-22.1 1-19.9 8.3-62.4 16.9-99 2.4-10.4 2.2-10.3 13.5-10.3 12.2 0 18.7-4.9 20.1-15.1.9-6.3-1.5-11.5-6-13.4-1.9-.8-6.7-1.8-10.6-2.1-4.7-.5-7-1.1-6.7-1.8.3-.7 1.9-6.3 3.5-12.6 4-15 12.9-41.7 19.7-59.1 8.6-22.1 9.9-32.1 5-39.5-4.1-6.3-16.6-8.3-24.5-3.8zm-29.1 89.1l-11 33-18.2 4.7c-10 2.6-19.2 4.9-20.4 5.2-1.4.4-2.3.2-2.3-.5 0-1.1 14-19.6 28.4-37.6 16-20 33.2-39.2 34.2-38.2.2.2-4.6 15.2-10.7 33.4zm-1196.6-87.1c-5 2.5-16.9 13.1-25.2 22.3-27 29.9-58.2 73.5-107.7 150.3-2.5 3.9-2.3 3.8-31.9 17.4-27.8 12.8-30.1 14.6-29.9 24.9.1 7.5 2.3 11.9 7.4 14.6 4.9 2.7 9.5 2.4 16.8-1.1 3.5-1.7 6.8-3 7.2-3 .5 0-6 13.6-14.4 30.2-18.2 36.3-21.8 44.9-22.4 53.9-.4 5.9-.2 6.8 2.3 9.7 3.6 4.3 7.5 6.2 12.7 6.2 9.6 0 17.1-8.9 27.9-33 2.3-5.2 13.6-27.8 25.1-50.1l21-40.6 33.4-12.3c18.4-6.7 33.8-12 34.1-11.6.3.3-.8 12.4-2.6 26.8-4.6 38.6-5.4 49.2-4.9 69.7.4 14.4.9 19.7 2.2 23.6 3.3 9.2 9.9 15.5 16.1 15.5 2.3-.1 4.6-1.6 10.4-7.2l7.4-7.1-.6-8.7c-.4-4.8-.2-16.1.3-25.1 2.2-35.3 9.6-96.9 12-99.3.4-.4 4.8-1.2 9.7-1.8 11.2-1.2 16.5-3.6 19.8-9.2 2.9-5 3.4-13.9 1-18.5-2.1-4.2-8.3-6.3-17.2-6-3.9.2-7.5.1-7.8-.2-1.6-1.6 11-56.6 19.4-84.7 8.1-27.1 7.6-37.3-2.2-44.6-3.8-2.8-14.8-3.4-19.4-1zm-17.6 63.6c-.3.7-4.7 18.3-9.8 39l-9.3 37.7-22.9 7.7c-12.5 4.2-23 7.5-23.2 7.2-.5-.4 1.8-4 19.1-30.3 20.8-31.7 43.2-62.3 45.7-62.4.5-.1.6.5.4 1.1zm977.3-19.4c-7.5 4.7-18.1 17.9-34 41.7-5.1 7.7-9.4 14.1-9.5 14.3-.1.1-6.5 1.5-14.3 3.2-7.7 1.6-15.4 3.5-16.9 4.4-7.5 3.8-10.2 11.8-6.5 18.6 1.7 3.1 8 7.4 13.3 9.2 1 .3-.1 3.3-4.3 11.4-18.2 35.1-25.8 59.8-25.8 83.6 0 13.2 2.1 18.9 9.6 25.7 14.7 13.5 34.6 9.8 54.8-10.2 16.7-16.5 35.5-44.1 36.4-53.5.3-4.1 0-5.2-2.2-7.9-4.6-5.4-11.4-6.4-17.5-2.4-1.3.8-5.7 6.6-9.8 12.9-13.2 20.3-24.5 32.8-32 35.3-3.2 1-3.8.9-5-.7-2.9-3.8.7-20.9 8.4-40.4 6.9-17.6 23.7-50.5 32.1-62.8.8-1.2 22.4-8.1 33.7-10.7 3.3-.8 9.7-1.9 14.2-2.4 4.6-.6 9.7-1.8 11.3-2.6 4.3-2.2 7-7.1 7-12.5 0-12.3-11.8-17.6-31-14-2.9.6-5.5.8-5.8.6-.2-.3 1.8-3.6 4.5-7.3 12.5-17.4 13.9-24.5 5.9-32.2-5-4.8-10.5-5.3-16.6-1.3zm-590.4 8.3c-7.5 4-17 15.9-20.4 25.8-2 5.7-1.5 13.3 1.1 17.2 9 13.5 29.4 5.4 39.9-15.8 6-12.2 4.7-22.3-3.4-27.3-4.4-2.6-12-2.6-17.2.1zm336.4 61.5c-28.1 5.3-56.7 34.2-73.9 74.5-7.7 18.1-9.4 25.7-9.5 41.4-.1 13.4 0 14.3 2.7 19.7 3 6.1 9 12.2 14.3 14.4 1.8.8 6.4 1.4 10.2 1.4 10.1 0 18.7-4.5 28-14.6l6.9-7.5 1.2 4.7c1.6 6.4 3.5 9.8 8.4 15.1 7.3 8 18.5 11.8 27.4 9.4 4.7-1.3 10.1-6.7 10.9-11.1l.6-2.8 3.5 2.4c2.6 1.7 5 2.4 8.5 2.4 9.2 0 13.5-4 23.8-22 9.8-17.1 23.4-36.9 24.6-35.7.2.1-.8 3.2-2.1 6.9-7 19.2-7.2 43.7-.5 59.2 2.4 5.6 8.5 12.5 12.7 14.3 7.5 3.1 17 .8 20.8-5 3.4-5.3 3.1-9-1.6-18.4l-4.4-8.8.1-11c.1-8.8.6-12.7 2.8-19.8 4.7-15.6 13.2-30.6 28.2-49.9 14-17.9 15.8-21.1 16.2-28.2.2-4.7-.1-6.8-1.6-9.2-2.4-3.8-7.7-6.4-13-6.4-5 0-17.3 6.1-26.2 13-3.6 2.8-7.7 5.9-9.1 7l-2.7 2v-5c0-5.8-1.8-9.2-6.5-12-5.5-3.4-9.1-3.5-14.1-.6-7.7 4.5-17.3 18.3-32.8 47.1-16.9 31.4-26 50.9-28.5 60.9l-1.5 6.3-5.2-3.3c-2.8-1.9-6-4-7.2-4.8-3.5-2.4-4.9-9.5-3.5-17.9 2.3-14.1 10.6-35.5 20.7-53.7 3.2-5.9 3.5-7 3-12-.8-7.3-.8-9.3 0-17.2.8-7.9-.4-12-4.8-16.7-5.7-6.1-18.3-10.1-26.8-8.5zm2.4 35.3c.3.5-1 3.3-3 6.3-2 2.9-7.9 13.8-13.1 24.3-16.1 32.2-26.7 48.1-33.2 49.8-10.1 2.6 0-32.5 16.7-57.8 5.6-8.5 16.8-20 21.4-22 3.7-1.6 10.4-2 11.2-.6z"/><path d="M1927 453.9c-12.2 3.9-23.4 11.5-35.6 24.3-27.2 28.4-46.4 67.2-46.4 93.9 0 13.7 4.2 22.3 13.3 27.2 6.6 3.4 16.4 3 24.5-1.1 4.7-2.3 6.2-2.7 6.2-1.6 0 1.7-2.4 3.4-22 15.8-20.8 13.1-32.9 22.5-45.6 35.1-18.6 18.5-26.5 34.4-26.8 53.5-.1 10.9 1.1 15.7 5.5 22.3 7.9 11.9 25.3 14.8 40.8 6.8 21.6-11.1 41.4-41.4 65.7-101 3.5-8.5 7-15.8 7.8-16.3 7.8-4.3 32.4-25.9 42.6-37.1 17.5-19.5 33.9-47.7 34.8-59.8.4-5.4.2-6-2.6-8.9-2.5-2.4-3.9-3-7.5-3-5.9 0-9.8 3.2-13.9 11.4-6.9 13.7-20.8 33.6-28.7 41.1l-3.2 3 1.7-4c3.3-8 14.6-29.9 19.3-37.4 6.1-9.8 6.5-11.5 4-16.9-2.1-4.2-2.1-4.4-.3-10.5 2.1-7.4 2.4-18.7.5-24-1.8-5.2-6.7-10.6-11.6-12.8-5.2-2.4-15.2-2.4-22.5 0zm3 34.8c0 4.9-9.1 20.3-17.1 28.8-5.5 5.9-6.4 8.4-4.9 13 1 3.2.8 3.9-3.7 11.7-6.5 11.4-13.6 20.1-20.4 25.1-4.8 3.6-5.9 3.4-5.9-.9 0-6.5 2.1-12.8 9.1-26.9 9.4-19 23.2-38.1 35.1-48.3 5.3-4.5 7.8-5.3 7.8-2.5zm-66 163.5c-9.9 21.1-20.8 38.6-28.4 45.6-5.8 5.3-8.9 5.4-9.4.4-.7-7.4 6.4-20.3 19.2-34.7 5.9-6.6 20.2-19.5 21.7-19.5.4 0-1 3.7-3.1 8.2zm219.4-196.6c-5.8 3.1-18.2 12.7-27.8 21.5-3.9 3.5-6.6 5.5-6.2 4.4 1.8-4.5 1.9-10.4.2-13-4.1-6.3-13.2-8.3-20.4-4.6-6.4 3.4-16.1 14.2-22.9 25.8l-2.5 4.3 2.1 2.9c5.5 7.6 6.6 19.1 3 30.7-4.6 15.3-20.4 41.5-35.4 58.8l-7.7 8.8.5 5.1c.5 5.9 3.3 9 9.7 10.7 9.7 2.6 16.9-3.3 23.9-19.5 5.5-12.7 13.6-27.3 21.7-39.6 7-10.4 20.2-27 22-27.6.7-.2 1.4.7 1.8 2 .9 3.6 6.3 8.4 11.4 10.2 15 5 35.1-2.1 55.5-19.9 11.1-9.6 15.4-18 12.7-24.6-1.5-3.5-6.6-7-10.4-7-3.4 0-4.6.6-18.6 10-22.3 14.8-24 12.3-5-7.4 7.1-7.4 13.2-14.7 13.6-16.1 1.3-5.2-.3-9.8-5-14.3-5.4-5.1-9-5.4-16.2-1.6zm88.1-.7c-9.1 5.7-21.6 24.6-36.5 55.4-15.5 32-26 61.6-26.3 74.2-.2 10.7 5.3 16.9 15 16.9 9.8 0 13.6-4.8 18.2-23 7.9-30.7 21.4-62 39.4-91.4 5.6-9 9.7-18 9.7-21 0-3.9-3.3-9.2-7.1-11.2-4.3-2.3-8.6-2.3-12.4.1z"/><path d="M2704.5 619.1c-4.9.5-55.1 1-111.5 1.2-66.1.3-105.3.8-110.5 1.5-15 2.1-65.1 4.5-118.7 5.8-26.2.6-28.9.8-30.4 2.5-2.3 2.6-8.5 2.5-16.5-.3-5.7-2-8.1-2.2-21.4-1.9-8.2.2-17.2.2-20 .2-2.7-.1-7.9-.1-11.5-.2-4.4-.1-8.3.6-12 2-6.8 2.6-9.3 2.6-12.8.2-5.8-4.1-44.9-3.5-92.7 1.4-34.5 3.6-64.8 6.3-81.5 7.5-8 .5-17.2 1.3-20.5 1.9-3.3.5-15 1.4-26 2.1-25 1.4-87.2 5.7-94.4 6.6l-5.3.6-2.6 6.1c-5.5 13.1-21 42.7-27.6 52.4-20.7 31.1-41.2 45.3-65.1 45.3-14.6-.1-24.6-3.9-33.8-13.1-16.3-16.3-19.2-45.2-7.2-72.3 1.4-3.2 2.4-6 2.2-6.2-.2-.2-4.3.1-9.3.6-4.9.5-39.7 4.1-77.4 8-37.7 3.9-77 7.9-87.4 9-21 2.2-70.2 7.1-96.1 9.5-22.8 2.2-72.7 11-97 17.1-19.5 5-45.5 14.3-51.6 18.5-1.4 1-3.1 3.5-3.7 5.6-.8 2.7-2 4.2-4.2 5.1-1.7.8-4.2 2.9-5.7 4.8-2.3 3.1-2.4 3.8-1.3 5.8 1.3 2.6.6 6.6-1.3 6.6-.6 0-3 .7-5.4 1.6-3.4 1.3-4.3 2.2-4.8 4.8-.4 1.7-2 7.2-3.6 12.2l-3 9.1-5.4 1.2c-5.9 1.3-6.3 1.7-4 4.7 2.4 3.1 1.8 4.4-1.9 4.4-3.3 0-3.6.3-5.4 5.2-1.4 3.8-2.6 5.4-4.1 5.6-2.5.4-2.8 3.3-.9 9.4 1 3.3.9 4.4-.5 6.7-1.6 2.7-1.6 2.9.4 4.6 1.1 1.1 2.9 3.4 4.1 5.3 1.7 2.8 1.9 3.8 1 5.3-1.8 2.9.1 6.2 5.6 9.7 6.2 4 9.6 4.1 34.4.7 30.8-4.2 105-16.8 117.8-20 7.9-2 53.3-8 234-30.6 87.7-11 167.6-21 177.5-22.4 9.9-1.3 18.2-2.5 18.5-2.5.3 0 .5-1.7.5-3.7v-3.8l4.7-.3c4.6-.3 11.8 1.9 11.8 3.6 0 .5-1.2 1.5-2.7 2.2-2.3 1.1-2.5 1.4-1 1.7 2.9.7 8.1-1.5 17.8-7.7 9.5-6.2 11.9-7.1 11.9-4.5 0 2 4.7 2.7 18 2.3 6.3-.2 12.6 0 14.1.4 2.3.7 2.6.4 3.7-3.7 1.2-4.4 1.3-4.5 5.2-4.5 2.8 0 4 .4 4 1.4 0 3 5.6 3.5 6.5.6.6-1.9 1.4-2 11.8-1.8 6.2.1 12.6-.2 14.4-.6 2.2-.6 4.1-.3 6.4.8 1.8.9 4.3 1.6 5.6 1.6 1.9 0 2.4-.5 2.1-2.3l-.3-2.2 29.5-.7c32.5-.7 32.3-.7 70-4.8 14.6-1.6 31.6-3.2 37.8-3.5 9.6-.6 11.2-1 11.2-2.4 0-1.5-1.1-1.6-9.5-1.3-12.3.6-14.1.1-15.5-4.3-.6-1.9-.9-3.9-.5-4.5 1-1.6 5.5-1.2 5.5.4 0 2.2 7.4 2.9 19.7 1.8l10.8-.9-9.6-.2c-10.8-.1-11.3-.4-13.4-7.3-1.1-4-1.7-4.5-7.4-6.7-6.3-2.5-7.7-4.6-4.7-7 1.1-.9 2.2-.9 4.9.2 1.9.8 3.8 2 4.1 2.6 1.3 2.1 3.5 1.1 6.4-3.1l2.9-4.2 10.4.3c5.7.1 10.8.7 11.3 1.2.6.5.2 1.7-.9 2.9-2.9 3.2-13.4 9.3-14.9 8.7-.8-.3-2.1.2-3 1.2-1.9 2.1-2.1 6.1-.3 6.1 3.4 0 34.3-4.2 40.4-5.4 12.1-2.6 23.4-7.6 17-7.6-1.3 0-4.5-1.1-7-2.4l-4.7-2.3-5.5 3.3c-6.3 3.8-8.1 4.1-11.3 1.8-3.1-2.1-2.8-4.1 1.1-6.4 9.5-5.9 28.1-9 54.5-9h19.2v4c0 2.2-.4 4-.8 4-2.4 0-4.3 2.7-3.7 5.3.6 2.4 1.2 2.7 4.9 2.7 2.2 0 11.5-.9 20.6-2.1 9.1-1.1 25.4-2.2 36.3-2.6 19.7-.6 19.7-.6 19.7 1.6 0 1.1-.9 3-2.1 4.2-2.4 2.4-1.9 3.4 1.3 2.5 3.9-1.1 6.4-3.4 5-4.8-.7-.7-1.2-1.8-1.2-2.6 0-1.5 4.1-1.3 8.3.3 1.3.5 1.7.2 1.7-1.2 0-1.5-1.3-2.4-5.6-3.7-5.4-1.7-5.5-1.8-4.9-4.9.9-4.2 1.2-4.5 7.7-6.2 3.7-.9 7.9-1.2 12.8-.8 6.9.6 7.2.7 8.8 4 2 4.3 4.6 4.5 3.7.3-.8-3.7.4-4.3 13-6 9.3-1.2 50.6-1.7 52.5-.5.6.4 1 4.8 1 10.7 0 9.9 0 10 2.3 9.4 1.2-.3 2.5-.6 3-.6.4 0 .7-9.3.7-20.6 0-20.3 0-20.5 2.1-20.2 1.7.2 2.7 2.1 5.2 10 2.8 8.9 3.3 9.8 5.9 10.4 3.7.8 5-.3 1.4-1.2-3.5-.8-3.3-2 .9-6 6.8-6.4 22.8-11.8 29.9-10 4.5 1.1 8.6 5.8 8.6 9.9v3.4l12.3.6c6.7.4 13.4 1 15 1.3 2.6.6 2.7.5 2.7-3.4 0-10.1 3.4-11.5 12.2-5.3 5.5 4 9.9 5.8 11.6 4.7.6-.3.4-2.7-.3-5.8l-1.2-5.3-9.6.2c-5.4.1-9.7-.1-9.7-.5s.9-1.8 1.9-3.1c1.7-2.2 2.5-2.4 17.4-2.9 14.9-.5 15.7-.4 15.7 1.4 0 2.8-1.1 4-4.5 5.1l-3 1 4.5 1.5c3.2 1 4.5 2 4.5 3.4 0 2-.5 2.1-4.3.9-2.1-.6-2.3-.4-2 2.1.2 2.2 1 2.9 4.8 4 5.1 1.5 5.5 1.2 6.4-4.8.4-2.4 1.7-4.9 3.2-6.3l2.6-2.4-2.6-.7c-5.2-1.3-2.5-9.3 4-12 6.3-2.6 10.8 1.1 11.9 10.1l.7 5 24.6.1c36.9.1 44.8.6 50.5 3.1 3.4 1.6 4.7 2.8 4.7 4.2 0 1.6.6 2.1 2.5 2.1 2.2 0 2.5-.4 2.5-3.3 0-5.9 1.7-7.1 9.2-6.3 3.9.4 7.7.2 9.6-.5 3.1-1 3.2-1.3 3.2-6.4 0-3.9.4-5.6 1.6-6.3 1.4-.8 1.2-1.2-1.1-3-2.1-1.7-2.6-2.7-2.1-4.6.8-3.2 3.3-3.9 10.1-3.1 5 .7 5.5.9 5.5 3.2v2.5l3.7-2.8c6.1-4.6 18.1-4.2 19.1.8.2 1.2-.8 1.8-3.8 2.3-3.1.5-3.9 1-3.1 1.8 1.5 1.5 1.4 4.2-.2 5.6-.7.6-3.7 1.7-6.6 2.4-4.5 1.2-5 1.5-3.7 2.7 1.2 1 1.4 1.6.5 2.6-.9 1.1-.7 1.4.7 1.4 1 0 9.1.5 17.9 1.1 10.5.7 17.7.7 21 .1 4.6-.9 4.1-1-5.7-1.1-8.2-.1-10.8-.4-10.8-1.4 0-2.8 2.9-4.5 13.2-7.6 17.4-5.2 23.5-3.5 24.3 6.8.4 5.4 1.2 6.2 5.3 4.5 2.4-1.1 3.2-2 3.2-4 0-2.9 2.6-8.4 4-8.4.6 0 1-.4 1-.9 0-1.6-14.1-5.3-17.7-4.6-3.4.6-3.4.6-3.1-2.7.3-2.9.8-3.4 4.8-4.6 4.9-1.5 26.5-1 43 .9 14 1.6 14 1.6 14 5.5 0 1.9-.3 3.4-.7 3.4-.5 0-5.4-.9-11-1.9l-10.3-1.8v2.2c0 1.6.9 2.6 2.9 3.5 1.8.7 3.1 2.1 3.3 3.3.3 1.8 1.7 2.5 9.8 4.4 5.8 1.4 10.8 2 12.8 1.7 2.9-.6 3.4-.3 3.9 1.6.5 2 1.1 2.2 4.7 1.7 2.9-.4 4.7-1.4 6.3-3.4 1.2-1.5 3.4-4.2 4.8-5.9 1.4-1.8 2.5-3.4 2.5-3.8 0-.3-1.8-.9-4-1.2-2.9-.5-4-1.1-4-2.4 0-2.8 2.1-3.9 9.1-4.6 5.6-.5 6.7-.4 7.2 1 1 2.5 3.1 1.9 5.5-1.4 1.3-1.7 3.1-3 4-3 3.2 0 12.2 5.1 12.2 6.8 0 4.1-1.3 6.2-3.6 6.2-1.2 0-2.6.4-2.9 1-.3.5-.1 1 .4 1 .6 0 1.1.8 1.1 1.7 0 1.5.1 1.5 1.3.1.6-.9 2.8-1.9 4.8-2.2 2.1-.4 5.4-1.8 7.5-3.2 3.4-2.3 4.4-2.6 9.4-2 16.3 2.1 15 2.1 15-.7 0-2.2.5-2.6 4.7-3.2 4.1-.6 4.9-.4 6.5 1.7 2.9 3.8 2.2 5.5-4.3 10.6-6.6 5-6.2 6.2 1.2 4.2 2.4-.7 5.5-2.5 7.2-4.3 2.6-2.8 3.7-3.2 8.2-3.3 3.2 0 6.3-.7 7.9-1.7 1.4-.9 3.4-1.7 4.5-1.7s2.9-1 4-2.1c1.8-2 11.1-4.1 11.1-2.5 0 .3-.9 2.3-2 4.3-1.1 2.1-2 5.7-2 8.1v4.4l4.8-.6c12.1-1.6 12-1.6 11.5-3.7-.8-2.9 1.1-4.5 7.8-6.3 4.9-1.4 7-1.5 11-.7 4.2.9 5.4.8 7.6-.7 2.4-1.5 4.9-1.7 20.5-1.3l17.8.3.1-5.3c0-3 .8-8.6 1.9-12.4 1-3.9 1.6-7.1 1.5-7.3-1.5-1.6-88.1-5.4-123.5-5.5-36-.1-47.7.7-59 3.9-7.1 2-9.2 3.9-8.8 7.9.3 2.6 0 3-2.4 3.3-2.3.3-3.2-.3-4.8-3.1-1.2-2-2.8-3.8-3.6-4.1-.8-.3-1.2-1-.9-1.6.4-.6-.6-1-2.4-1-3.2 0-3.7-.6-2.2-2.9.6-1 1.9-1.2 4.5-.7 2 .4 3.6.3 3.6-.2 0-1.2-3.5-2.2-7.7-2.2-2.7 0-3.2.4-3.8 3-.8 3.5-4.8 7-8.1 7-3.4 0-3.2-4.5.2-8.1l2.6-2.7-2.6-1.7c-2.5-1.7-2.9-1.7-8.1.2-5.4 2-5.6 2-19.2.2-29.4-3.8-49.5-5.1-87.8-5.4-20.9-.2-42 .1-47 .6zm453.4 17.6c-.6 1.5-2.9 8-5 14.3l-3.8 11.5 8.2.8c16.6 1.5 16.7 1.6 16.7 4.3 0 2.3.3 2.4 6.8 2.4 3.8 0 9.1.7 11.7 1.5 4.3 1.3 5.4 1.2 9.8-.2 6.4-2.1 19.7-1.3 36.7 2.1 14.7 3 18.2 3.2 17.4 1.2-1-2.5 3-5.3 8.7-6 3-.4 10.1-.2 15.9.3 24.1 2.3 24 2.3 22.1 7.4-1 2.5-.8 2.7 3 3.7 5.6 1.5 11.4.4 15.3-3l3.2-2.9 41 3c62.1 4.4 102.4 8.4 109 10.9 3.3 1.3 4 3.5 2 6.5-1.6 2.4-1.5 2.5.8 3.1 1.3.3 3.7-.1 5.2-.9 6.5-3.3 13.8-4.2 31.9-4.1 20.9.1 31.7 1.2 92 9.9 51.6 7.4 66.8 9 81.9 8.2 12.9-.6 18.6-2.4 18.6-6 0-3 1.8-4.7 4.9-4.7 4 0 2-.7-3.9-1.3-3-.3-4.9-.4-4.2-.1 1 .5 1.9 6.4.9 6.4-.2 0-5.5-2-11.8-4.5-6.3-2.5-13.6-5.2-16.3-6-6.4-1.9-15.7-1.9-20.3 0-5.8 2.5-8 2-9.4-2-1.2-3.3-2.9-4.7-2.9-2.5 0 1.6-5 1.2-5.6-.4-.6-1.6-2.8-2.2-12.6-3.1-7.6-.7-8.5.1-4.6 4.2 3.7 3.9 1.1 4.9-6.4 2.4-3.4-1.1-9.3-2.5-13-3.2l-6.7-1.1-.6-4.2-.7-4.2-77.1-8.8c-42.5-4.8-90.7-10.1-107.2-11.8-16.5-1.6-37.7-4-47.2-5.4-26.8-3.8-37.7-4.6-45.6-3.4-3.8.6-7.8 1.5-8.8 2.1-1.6.8-1.9.6-1.9-.9 0-3.8-2.2-4.4-10.9-3.2-10 1.4-21.1.3-49.1-4.7-16.3-2.9-23.1-3.7-33-3.7-6.9 0-13.6.5-15 1.1l-2.5 1.1 3.8 1.8c3.7 1.8 3.8 1.9 3.2 5.9-1.1 6.4-3.1 8.8-6.7 8.1-4.2-.8-5.8-2.4-5.8-5.6 0-3-1.5-4-5.6-4-3.4 0-6.4-1.7-6.4-3.6 0-2.8-3-7.4-5.8-8.8-1.5-.7-5.1-1.7-7.9-2.1-5.1-.7-5.3-.6-6.4 2.2z"/><path d="M2826 660.4c0 .2 2.4 1.9 5.3 3.6 5.9 3.7 6.9 4.8 6.1 7.2-.7 2.4 1.3 2.3 2.5-.1.8-1.4.5-2.3-1.2-3.9-2.2-2-12.7-7.6-12.7-6.8zm254 15.6c-1 1.8-.8 1.9 2.2 1.3 4-.7 4.2-.9 3.3-2.2-1-1.8-4.4-1.2-5.5.9zm637.8 26.4c-.6 1.2-2.8 4-5 6.2l-4 4.2 11.8.7c23.2 1.4 25.9 1.8 25.9 4 0 2.6 2.7 3 7.6 1.1 5.4-2.2 8.6-2.1 9.4.4.8 2.4-1.7 2 47 7.6 22 2.5 56.6 6.7 76.9 9.4 20.3 2.7 37.2 4.8 37.4 4.5.3-.3-1.6-1.4-4.3-2.6-4.9-2.2-13.9-4-27.8-5.7-4.6-.6-8.5-1.6-9.6-2.6-1-.9-3.1-1.6-4.7-1.6s-5.6-.7-8.7-1.5c-5.2-1.3-6.1-1.3-8.7 0-3.7 1.9-7 1.9-12-.1-3.3-1.3-4-2.1-4-4.4 0-2.5-.4-2.8-4.6-3.4-2.6-.3-10.9-.6-18.6-.6-13.7 0-13.9 0-14.8-2.4-1.2-3.1-4.6-3.6-23-3.4-14.8.2-19-.6-19-3.7 0-.8-.1-1.5-.2-1.5-.2 0-10.6-1.5-23.1-3.4l-22.8-3.3-1.1 2.1z"/></svg>
