<svg xmlns="http://www.w3.org/2000/svg" viewBox="-522 358.2 227.7 58.5" fill="currentColor"><path d="M-411.5 413c1 1.3 2.5 1.6 3.4.8.3-.3 1.1-1.9 1.6-3.6.6-1.6 2.6-6.6 4.5-11l3.5-8.1 1.8.2c2.9.4 8.9-.8 12.8-2.7 4.6-2.2 8.6-5.5 11.7-9.6 2-2.8 2.5-3.9 3.3-7.7.8-4.1.8-4.8-.2-7.1-.6-1.6-1.8-3.1-2.8-3.8-2.4-1.6-7.2-2.2-11-1.4-2 .5-3.2.5-3.5.1-.2-.3-1.1-.7-2-.9-1.2-.2-1.6.1-2.3 1.6-.5 1.2-2.2 2.9-4.9 4.9-4.2 3-5.1 4.5-3.7 6.1.5.5 1.4.8 2.7.7l1.9-.1-3.2 6.3c-2.9 6-3.3 6.4-5.2 6.8-2.2.6-2.9 2.2-1.6 4.1.6.9.4 1.8-2.7 8.7-3.9 9-5.3 14.1-4.1 15.7zm24.5-46.5c.9-.8 5.5-2.3 8-2.5 3-.2 6 1.1 6.5 3 1.3 4.7-7.4 14.7-15.5 17.6-3.9 1.5-7.7 1.8-7.5.7.2-1.2 7.8-18.2 8.5-18.8zm8.2 42c2.5 3.6 7.7 1.2 12.4-5.7 3.2-4.7 3.6-6.4 1.5-6.7-1.1-.2-1.9.4-4.1 3.6-2.6 3.5-4.4 5.1-5.1 4.3-.2-.2.3-1.9.8-3.7 1-2.9 1.6-3.8 5.7-7.6 10.9-10.2 19.9-22.7 20.9-29.3.6-3.3-.1-4.4-2.9-4.8-1.8-.2-2.6 0-4.7 1.7-6.3 4.8-16.2 20.6-22.1 35.3-2.9 6.7-3.7 11.1-2.4 12.9zm22.9-40.8c2.8-3.4 4.9-4.4 3.9-1.7-1.5 4-7.2 12.2-13.1 19-1 1.1-1.8 1.5-1.7.5.2-1.2 8.6-15 10.9-17.8zm-7.8 35.3c-1 7.1 4.2 9.9 9.2 5l2.1-2.1.6 2c.5 2 2.7 4.1 4.5 4.4.5.1 1.6-.4 2.4-1.1s1.8-1.1 2-.9c.9.8 3.1-1.3 6.4-6.1 3.5-5 5.4-6.7 3.9-3.4-1 2.3-1.7 7.7-1.3 9.7.2.9.8 2.3 1.4 3.1 1.2 1.7 3.3 2 4.5.6.6-.7.5-1.4-.2-3.2-1.8-4.6-.2-9.8 5.6-17 3.1-4 3.6-5.6 2.1-6.8-1.3-.9-3.7-.1-6.7 2.1-1.2.9-2.3 1.7-2.5 1.6s-.2-.8-.1-1.6c.3-2.1-1.4-3.1-3.3-1.8-1.7 1.2-5 6.2-8.8 13.9-3 5.9-3.3 6.3-4.2 5.6-.5-.4-1.1-1-1.3-1.4-.7-1.3.5-6.1 2.4-10 1.5-3 2-4.6 2-6.6 0-4.1-.1-4.5-2-5.4-6.3-2.7-17.2 8.4-18.7 19.4zm15.9-13.8c.6.5-3.2 7.8-6.6 12.6-4.3 6-5.7 2.2-2-5 2.9-5.6 6.8-9 8.6-7.6zm27.1 17.6c.1.9.6 2.1 1.1 2.7 1.2 1.6 4.5 2.1 7 1 2.4-1 5.4-4.1 8.2-8.3 2.3-3.6 2.4-4.8.3-5.1-1.1-.2-1.8.4-3.9 3.4-2.4 3.3-5.4 6-6.7 5.8-2-.3.7-8.4 5.1-15.8 2.7-4.6 3.8-5.3 9.2-6.1 5.4-.8 5.9-1 6.1-2.5.3-2-1.2-2.8-4.2-2.6-1.3.1-2.6.2-2.8.2-.2 0 .3-1 1.3-2.2 1.9-2.5 2.3-4.2 1.3-5.3-1.6-1.7-3.4-.4-9.1 7.1-2 2.6-2.4 2.9-5.3 3.4-2.2.4-3.4.9-3.7 1.6-.7 1.2.2 2.8 1.6 3s1.3.6-1.5 5.9c-2.4 4.6-4.3 11-4 13.8zm-113.2-4.1c-.6 4.2.9 7.6 4.1 8.9 3.1 1.3 8.1.4 9.6-1.7 2.6-3.5 2.5-6.5-.2-10.6-2.3-3.7-2.9-5.2-2.2-6.9.9-2.4 5.2-4.9 7.6-4.6 2.4.3.4 2.9-3 3.9-2.4.6-3.5 1.7-3.2 3.2.5 3 8.2.6 11.3-3.6 1.3-1.8 1.8-5 .8-6.2-2.5-3.3-10.2-2.4-15.2 2-4.3 3.7-4.8 8-1.4 12.8 2.6 3.7 3 5.6 1.8 6.9-1.2 1.4-2.6 1.2-4.3-.6-1.2-1.3-1.3-1.6-.7-4.8.6-3.2.7-3.3-.8-3.7-2.1-.7-3.7 1.4-4.2 5z"/><path d="M-445.4 401.1c2.3 3.4 2.7 5.3 1.2 6.5-1.1.8-3 .4-4.3-1-1-1.1-1.1-1.7-.7-4.8.4-3.2.4-3.5-.7-3.8-1.8-.5-3.5 1.8-4 5.5-.5 3.6.3 5.7 2.7 7.7 4.4 3.6 12.1.9 12.8-4.5.4-2.6 0-4-2.4-7.4-2.5-3.7-2.8-5.3-1.2-7.5 2.3-3.4 8.6-5.2 7.7-2.3-.2.8-1.4 1.6-3.5 2.4-2.7 1-3.2 1.4-3.1 2.6 0 1.3.2 1.6 2 1.7 5.8.6 12.5-7.2 9.4-11.3-2.2-2.9-10.5-1.7-14.8 2.1-4.8 4.1-5 8.4-1.1 14.1zm-3.7-21.7c.9 1.2 1.8 1.1 4-.3 2.4-1.6 3.7-5.6 2.4-7-2.5-2.8-8.6 4.3-6.4 7.3zm-14.3 32.6c.7 1.1 2.9 1.6 3.6.8.2-.3 1.3-3.2 2.3-6.4 1-3.4 3.2-8.2 4.9-11.4 1.7-3 3.1-6 3.2-6.5.2-1.2-1.7-2.1-2.9-1.5-3.8 2.4-12.7 22.3-11.1 25zm-28.4.1c1 1.1 1.8 1.5 2.6 1.4 1.8-.2 4.5-2.3 6.5-4.9l1.7-2.2.5 2.8c.4 2.2.8 3 1.9 3.5 3.1 1.6 7-1.2 11.3-8.2 4-6.6 6.7-14.4 6-17.4-.2-1-2.1-1.4-3.3-.8-1 .5-2.3 3.5-2.7 6.6-.4 2.9-3.6 10-5.7 12.5-3.2 3.9-3-.1.5-7.3 2.8-6 3-6.5 1.3-7.3-2.2-.9-3.6.2-7.5 5.8-4.2 5.9-7.6 9.7-8.5 9.6-.4-.1-.4-.5 0-1.2 1.6-3.6 3.6-6.8 5.8-9.5 1.3-1.6 2.4-3.5 2.4-4.1 0-1.5-1.5-2.7-2.9-2.1-3.5 1.5-9.7 11.9-10.7 17.8-.5 3.2-.5 3.5.8 5zm-26.4 2.6c6.1 4.3 18.3 1.4 22.7-5.4 3-4.6 2.3-7.7-3.6-15.9-6.4-8.9-6.8-11.9-2.6-18.3 4.5-6.6 15.8-12 16.3-7.7.3 3.1-5.4 8.9-11.6 11.9-2.1 1-2.7 1.6-2.9 2.8-.1.8.1 1.8.5 2.3 1.4 1.3 3.9.4 8.9-3.2 6.5-4.6 10-9.5 10.3-14 .1-2.3-.1-3.3-1.3-4.5-1.2-1.3-1.8-1.6-4.4-1.8-4.3-.3-8.3 1.1-13.4 5-6.1 4.6-9.4 9.3-10.2 14.7-.3 2.1-.3 4.7 0 5.8s2.5 4.7 4.8 8c4.9 6.9 5.8 9.2 4.4 11.9-1.1 2-3.8 4-7.2 4.9-4.1 1.2-8 0-8.9-2.8-.6-2.3-.3-3 2.4-4.8 2-1.4 2.5-2 2.3-3-.5-2.7-4.5-2.4-7.9.5-3.7 3.6-3.2 10.3 1.4 13.6z"/></svg>
