<svg xmlns="http://www.w3.org/2000/svg" height="45.725mm" width="174.65mm" viewBox="0 0 618.83872 162.01641">
    <path d="M1.973 160.85c-.504-.607-.67-1.104-.368-1.104s.1-.54-.445-1.198c-1.62-1.95-1.526-6.033.177-7.737.822-.82 1.304-1.684 1.07-1.918-.234-.234.197-.86.958-1.393.76-.534 1.604-2.154 1.876-3.602s.974-2.817 1.56-3.042c.584-.224 1.062-1.05 1.062-1.83 0-2.357 3.09-5.82 6.94-7.777 9.582-4.87 19.78-7.433 66.676-16.75 47.645-9.467 52.46-10.38 73.616-13.962 20.616-3.49 26.505-4.546 39.753-7.13 6.276-1.225 14.392-2.368 18.036-2.54 3.644-.172 9.11-.672 12.147-1.112 3.037-.44 7.222-.636 9.3-.435s4.076.07 4.437-.29c.36-.36 7.107-1.48 14.993-2.487 7.885-1.007 17.152-2.336 20.594-2.954 5.83-1.047 28.104-3.462 41.593-4.512 3.24-.252 8.705-.936 12.147-1.52 3.44-.586 11.558-1.224 18.036-1.42 6.478-.193 13.48-.482 15.558-.64 3.43-.26 3.745-.157 3.41 1.123-.403 1.544 1.172 1.957 2.478.65.833-.832 3.215-.21 3.215.84 0 1.268 2.04.643 2.402-.734.402-1.54 4.903-2.782 12.788-3.53 4.42-.42 4.53-.483 5.33-3.09.448-1.465 2.09-5.254 3.645-8.422 2.043-4.158 2.506-5.655 1.664-5.386-.642.205-2.616.905-4.386 1.554-7.735 2.837-12.996-3.495-11.163-13.433 2.4-13 17.997-34.067 29.468-39.8 5.12-2.558 6.363-2.753 9.23-1.447 6.834 3.114 4.51 14.687-4.876 24.28-3.748 3.83-4.596 4.355-6.706 4.152-3.905-.376-3.477-2.275 1.767-7.834 6.404-6.788 9.127-11.568 8.774-15.403-.275-2.98-7.387 1.252-14.02 8.343-11.895 12.716-20.53 30.268-16.987 34.535 2.442 2.943 7.768.577 15.97-7.096 3.953-3.7 5.2-4.2 6.707-2.692 1.44 1.44 1.094 2.512-3.484 10.758-4.476 8.064-9.368 19.038-8.758 19.648.437.437 35.888-1.02 37.603-1.547 1.825-.56 4.233.346 4.233 1.594 0 .58.544 1.055 1.208 1.055.664 0 1.61.55 2.102 1.224 1.35 1.844 3.575.707 3.134-1.602-.406-2.127-1.643-1.937 13.615-2.09 5.97-.06 10.946.16 11.057.49.11.328 1.022.298 2.026-.067 1.05-.38 15.536-.478 34.06-.23 24.974.337 32.365.647 32.815 1.375.32.516 2.347 1.148 4.505 1.404 3.137.37 3.805.27 3.327-.503-.475-.77-.01-.85 2.277-.4 1.582.313 3.704.52 4.716.46 5.153-.3 6.518-.203 9.57.67l3.313.95-2.21.654c-1.234.367-11.62.442-23.556.17-20.21-.457-23.317-.284-27.82 1.555-.9.368-1.25.233-1.104-.427.38-1.716-5.2-2.152-21.472-1.68-11.866.343-16.046.707-16.8 1.46-1.335 1.336-3.107 1.278-3.107-.1 0-1.563-10.89-1.618-11.49-.058-.306.797-1.833 1.024-6.418.954-3.31-.05-6.68.005-7.49.125-.81.12-4.62-.01-8.466-.29-4.025-.293-8.322-.2-10.122.22-2.14.5-3.13.49-3.13-.03 0-.51-2.38-.593-7.177-.248-9.272.667-13.525 1.496-14.498 2.827-.43.587-1.527 1.305-2.437 1.594-1.543.49-1.603.39-.896-1.467 1.067-2.81.315-3.118-2.976-1.224-1.572.904-3.262 1.644-3.758 1.644-.495 0-1.583.58-2.418 1.288-1.422 1.208-1.455 1.208-.527.01 1.024-1.324.668-3.507-.572-3.507-.39 0-1.184.477-1.767 1.06-.6.6-1.74.883-2.628.65-.867-.225-2.39.13-3.41.798-1.58 1.036-1.84 1.052-1.84.112 0-1.508-2.786-2.932-3.913-2-.48.397-1.84.834-3.025.97-2.244.26-3.63 2.09-1.584 2.09.98 0 1.024.237.27 1.446-.77 1.23-1.49 1.39-4.87 1.078-2.183-.202-4.433-.832-5-1.4-.888-.886-.668-.973 1.55-.614 2.07.336 2.584.18 2.584-.78 0-1.025-1-1.2-6.81-1.19-7.02.012-8.09.283-8.81 2.238-.23.63-1.78 1.593-3.442 2.142s-3.023 1.44-3.023 1.984c0 .644-.93.986-2.684.986h-2.683l1.948-1.805c2.44-2.262 2.543-4.084.23-4.084-.945 0-1.956.238-2.248.53-.292.29-1.68.43-3.085.31l-2.555-.22.48 3.002c.478 2.99.47 3.002-1.892 3.002-1.784 0-2.47.38-2.772 1.535-.303 1.157-.55 1.293-1.008.553-.63-1.02-8.21-1.107-15.57-.182-2.786.352-3.496.22-3.496-.642 0-1.92-1.91-2.947-3.7-1.99-1.196.64-1.474 1.283-1.136 2.627.316 1.26.14 1.78-.603 1.78-.7 0-.915-.51-.648-1.532.378-1.444.19-1.505-3.197-1.05-5.11.687-5.246.764-5.796 3.27-.413 1.872-.853 2.257-2.587 2.257-1.15 0-2.57.184-3.158.41-.667.256-1.216-.16-1.463-1.105-.527-2.014-4.515-2.036-7.527-.04-2.766 1.83-3.1 1.827-3.694-.042-.925-2.916-2.198-1.04-2.07 3.05.068 2.19-.043 3.203-.246 2.247-.362-1.696-.5-1.725-5.89-1.22-6.516.61-9.858 1.475-10.673 2.76-.466.736-.594.74-.603.013-.013-1.098-2.852-1.203-5.484-.202-2.16.822-2.512 2.693-.6 3.193.708.185-.203.38-2.025.43-1.822.054-6.46.75-10.306 1.55-8.413 1.747-8.51 1.753-7.388.4 2.104-2.536-1.358-3.267-8.89-1.878-5.038.93-9.488 2.883-9.488 4.166 0 1.2 1.757 1.287 3.81.19 1.02-.548 1.742-.565 2.252-.055.727.727-1.056 1.406-7.166 2.726-1.215.264-2.87.638-3.68.834-1.064.256-.81-.186.92-1.594 1.315-1.072 2.392-2.257 2.392-2.632 0-1.112-4.894-.778-5.87.4-.496.595-1.576 1.01-2.403.92-2.217-.24-2.407 1.424-.224 1.972 2.078.52 2.647 2.848.61 2.498-.725-.124-1.373.33-1.525 1.072-.207 1.012.26 1.304 2.182 1.36 1.733.05 1.05.343-2.338 1.005-13.22 2.583-22.552 4.077-25.47 4.077-1.783 0-3.24.302-3.24.67 0 .61-6.186 1.47-11.228 1.56-1.267.024-2.024.44-2.024 1.112 0 1.048-.685 1.17-7.91 1.41-1.316.044-2.924.613-3.576 1.264-.846.847-2 1.075-4.05.8-2.243-.3-2.868-.14-2.868.733 0 .645-.857 1.266-2.025 1.465-8.853 1.517-92.287 20.645-105.09 24.093-27.728 7.47-28.792 7.662-30.55 5.543zm75.09-56.443c-6.527-3.376-8.48-12.14-3.918-17.564 3.774-4.485 9.102-5.564 10.21-2.068.398 1.25-.138 2.18-2.526 4.386-3.213 2.967-3.524 3.92-2.215 6.792 1.603 3.517 6.884 4.416 12.066 2.054 4.266-1.944 7.513-4.936 8.454-7.788 1.234-3.74-.32-6.572-8.055-14.692-3.703-3.886-7.212-8.214-7.798-9.618-.587-1.404-1.067-4.838-1.067-7.63 0-7.173 3.457-14.04 10.62-21.103 6.102-6.016 10.932-8.64 16.67-9.06 3.522-.258 4.392-.05 6.168 1.478 1.636 1.408 2.145 2.582 2.438 5.63.57 5.928-3.165 12.91-10.818 20.22-5.925 5.662-8.865 7.227-11.018 5.87-.646-.41-1.174-1.687-1.174-2.842 0-1.67.677-2.55 3.312-4.31 7.577-5.06 13.94-13.778 12.944-17.742-1.39-5.542-15.215 3.553-19.874 13.075-4.457 9.11-3.35 12.988 6.702 23.493 9.25 9.666 10.726 13.544 7.662 20.137-4.54 9.77-19.995 15.83-28.782 11.284zm34.12-8.25c-1.925-1.654-2.088-2.186-1.985-6.467.19-7.863 6.47-22.604 10.746-25.218 1.62-.99 3.77.204 4.08 2.265.12.79-.956 3.388-2.39 5.77-2.324 3.858-4.352 8.494-5.88 13.438-.307 1-.2 1.657.27 1.657 1.27 0 5.042-5.703 9.385-14.183 4.2-8.204 5.76-9.813 8.774-9.056 2.27.57 2.23 1.405-.437 9.735-3.224 10.063-2.802 15.42.76 9.637 2.224-3.615 5.13-13.435 5.13-17.343 0-4.13 1.084-8.275 2.378-9.097 1.56-.99 4.062-.686 4.536.55 1.433 3.73-.66 14.48-4.642 23.833-4.253 9.996-8.766 14.385-13.2 12.835-1.475-.516-2.235-1.568-3.1-4.29l-1.145-3.61-1.918 3.254c-2.22 3.766-5.41 6.93-7.682 7.613-1.103.333-2.22-.07-3.68-1.326zm190.78-1.93c.25-.404.6-.736.78-.736s.323.333.323.737-.35.737-.78.737c-.428 0-.574-.332-.324-.737zm-6.258-.736c-.898-.58-.803-.714.508-.724.887-.006 1.818.32 2.068.725.58.94-1.125.94-2.575 0zm-147.28-2.636c-2.626-3.164 5.283-31.002 9.896-34.83 1.458-1.21 4.143-.358 4.143 1.313 0 .71-1.33 4.82-2.955 9.13-1.686 4.474-3.544 11.295-4.327 15.885-.753 4.424-1.597 8.41-1.873 8.855-.743 1.203-3.772.984-4.882-.354zm15.734-3.22c-3.615-2.203-4.986-4.844-4.986-9.602 0-4.994 1.774-8.312 4.255-7.96 1.46.21 1.61.658 1.61 4.896 0 4.016.24 4.862 1.737 6.074 1.974 1.598 4.54 1.828 5.844.524 1.732-1.73.895-4.244-2.756-8.274-6.125-6.763-6.576-12.57-1.433-18.427 5.045-5.745 15.748-8.858 19.062-5.544 4.712 4.713-2.5 16.285-10.28 16.495-2.292.062-2.63-.164-2.83-1.885-.196-1.692.298-2.236 3.68-4.05 2.68-1.434 3.982-2.613 4.143-3.75.57-4.006-7.275-.478-9.638 4.336-1.616 3.293-1.01 5.232 3.02 9.647 3.74 4.096 4.543 5.74 4.543 9.287 0 7.176-9.595 12.123-15.972 8.235zM352.64 85.7c-.76-1.61-.68-1.78.862-1.78 1.344 0 1.62.313 1.314 1.485-.574 2.197-1.237 2.286-2.177.294zm-160.33-1.58c-4.34-1.102-7.026-5.245-7.026-10.837 0-4.846 1.724-7.92 4.275-7.626 1.942.224 1.977.318 1.73 4.724-.23 4.16-.1 4.614 1.757 6.074 2.54 1.998 4.37 2.004 5.762.017 1.472-2.102.533-4.415-3.577-8.81-5.242-5.603-5.396-11.36-.454-16.974 5.766-6.55 15.633-9.26 19.532-5.36 1.437 1.437 1.496 5.626.117 8.265-3.154 6.036-12.82 10.666-14.065 6.74-.588-1.855.64-3.428 3.663-4.69 4.31-1.802 6.54-5.582 3.293-5.582-3.35 0-8.44 4.123-9.165 7.422-.54 2.45.374 4.352 4.167 8.683 4.262 4.866 4.893 8.864 2.196 13.903-1.616 3.02-7.97 5.13-12.21 4.054zm24.226-1.444c-1.877-1.877-1.032-8.944 2.568-21.49 2.75-9.582 2.93-10.708 1.91-11.837-1.96-2.168-1.41-4.404 1.376-5.567 2.35-.983 2.688-1.595 5.475-9.926l2.97-8.88-2.538.478c-1.595.3-2.947.138-3.635-.434-2.126-1.763-1.187-3.927 3.755-8.655 3.135-3 5.1-5.545 5.556-7.192.586-2.12 1.045-2.55 2.73-2.55 1.115 0 2.354.327 2.753.726.476.476 2.045.223 4.572-.737 4.684-1.78 11.16-1.896 14.603-.262 1.515.72 3.295 2.506 4.436 4.453 1.73 2.952 1.876 3.81 1.588 9.29-.267 5.1-.705 6.767-2.814 10.725-3.242 6.08-7.788 11.08-13.47 14.808-4.846 3.18-12.363 5.904-16.297 5.904h-2.38l-3.07 11.227c-1.688 6.174-3.437 13.05-3.886 15.275-.45 2.226-1.15 4.463-1.556 4.97-1.04 1.292-3.175 1.142-4.644-.327zm25.59-41.628c9.898-5.196 19.613-20.025 16.948-25.873-1.06-2.328-5.318-3.595-9.145-2.72-3.257.742-9.047 3.465-9.99 4.696-.725.947-7.54 24.58-7.54 26.148 0 1.44 4.816.326 9.724-2.25zm179.47 39.56c2.41-1.378 3.35-1.378 2.207 0-.504.608-1.62 1.093-2.483 1.08-1.475-.026-1.46-.088.275-1.08zm186.25-3.326c-1.87-.292-.265-.364 3.68-.164 3.846.195 7.13.48 7.3.634.48.44-7.305.106-10.98-.47zm-30.184-.806c0-.496-1.505-.695-4.05-.536-4.243.264-4.8-.048-2.902-1.624.936-.776 2.408-.778 8.006-.01 3.772.518 8.225.71 9.896.43 2.16-.366 3.037-.258 3.037.37 0 .645 1.1.75 4.034.383 3.097-.388 4.42-.236 5.685.65 1.53 1.073.907 1.156-8.76 1.156-7.62 0-10.49-.244-10.713-.912-.24-.72-.717-.723-2.27-.015-1.33.605-1.966.64-1.966.106zm-319.2-5.887c-1.916-2.123-1.683-7.892.698-17.272 5.14-20.257 15.197-42.7 22.512-50.236C284.172.506 285.134 0 287.52 0c3.658 0 4.777 1.38 4.677 5.77-.2 8.822-9.627 26.888-22.048 42.256-4.595 5.685-5.294 6.965-6.004 10.994-.442 2.508-.628 4.736-.413 4.95.93.93 3.1-1.53 5.84-6.61 2.454-4.55 3.253-5.462 4.786-5.462 2.825 0 2.646 2.268-.71 8.973-4.955 9.9-11.338 13.985-15.188 9.72zm13.65-33.23c6.42-10.1 12.27-21.86 13.58-27.3.882-3.654-1.667-2.033-4.703 2.99-2.498 4.134-11.05 23.73-11.05 25.318 0 1.183 1.105.67 2.172-1.01zm48.098 31.688c-.87-.93-1.937-2.622-2.37-3.762-.972-2.57-1.02-9.63-.085-12.89 1.332-4.643-.962-2.097-4.562 5.064-3.442 6.845-5.923 9.938-7.294 9.09-.384-.236-1.493.43-2.465 1.477-.973 1.05-2.297 1.908-2.944 1.908-2.398 0-5.66-2.367-6.703-4.863l-1.068-2.556-2.372 3.1c-5.62 7.346-13.035 4.553-13.042-4.913-.01-14.655 12.24-31.196 20.972-28.315 2.666.88 2.93 1.367 3.655 6.708.35 2.584.013 4.72-1.41 8.964-1.804 5.372-2.43 11.815-1.307 13.472.297.44 1.18 1.15 1.963 1.576 1.31.718 1.66.083 4.476-8.16 3.71-10.86 6.98-18.05 9.028-19.863 2.202-1.95 4.58-1.028 4.58 1.772 0 1.187.178 2.16.394 2.16.216 0 1.546-1.155 2.956-2.565 3.62-3.62 6.587-5.047 8.436-4.058 2.19 1.172 1.796 3.506-1.55 9.21-6.173 10.517-7.433 17.527-4.19 23.3 1.246 2.214 1.445 3.193.847 4.148-1.212 1.936-4.132 1.934-5.947-.004zM289.202 57.42c3.616-7.043 7.25-17.207 6.35-17.763-2.527-1.562-7.024 3.687-9.865 11.513-3.662 10.09-.94 14.928 3.515 6.25zm47.013 3.7c-.8-.8-1.673-2.327-1.94-3.394-.91-3.623.293-12.343 2.6-18.835 2.655-7.477 2.71-7.972.883-7.972-1.896 0-3.254-1.83-2.685-3.62.316-.997 1.795-1.902 4.505-2.756 3.68-1.16 4.237-1.633 6.318-5.362 6.08-10.893 8.158-13.064 10.58-11.054 1.542 1.28 1.305 3.576-.738 7.15-.984 1.72-1.56 3.12-1.28 3.11.28-.01 1.93-.346 3.668-.747 3.898-.9 6.044.04 6.044 2.646 0 1.997-.657 2.385-7.485 4.407-6.867 2.034-8.15 3.17-10.864 9.624-4.41 10.492-6.356 21.63-3.777 21.63 1.654 0 5.223-4.08 7.71-8.813 2.25-4.282 3.033-5.173 4.543-5.173 2.762 0 2.882 1.725.472 6.8-2.844 5.99-6.246 10.557-9.208 12.363-3.106 1.894-7.45 1.892-9.345-.003zm128.99.598c-1.434-1.433-1.087-4.42 1.297-11.174 1.214-3.44 2.208-6.41 2.208-6.598 0-.188-.663-.515-1.472-.726-1.01-.264-1.473-1.004-1.473-2.358 0-1.66.565-2.21 3.565-3.48 3.277-1.383 3.812-1.988 6.62-7.48 9.155-17.922 11.78-22.748 12.674-23.3 1.468-.908 3.643.573 3.643 2.48 0 1.88-4.716 11.973-8.527 18.252-2.813 4.635-3.132 6.072-1.227 5.518.708-.206 3.607-1.067 6.44-1.914l5.154-1.54 5.52-9.595c6.226-10.818 7.558-12.404 9.43-11.23 2.287 1.43 1.71 3.572-3.14 11.648-2.65 4.41-4.816 8.102-4.816 8.203 0 .1.743.29 1.65.42 1.893.27 2.57 2.38 1.266 3.95-.488.59-2.027 1.07-3.42 1.07-2.472 0-2.61.165-5.757 6.81-1.774 3.744-4.184 9.79-5.357 13.434-2.182 6.78-3.423 8.132-5.717 6.228-1.815-1.506-1.192-5.163 2.312-13.59 4.895-11.768 5.11-10.85-2.024-8.683-3.378 1.025-6.512 2.16-6.964 2.52-1.215.973-5.253 10.94-6.746 16.648-1.01 3.863-1.627 5.022-2.764 5.187-.805.117-1.874-.198-2.376-.7zm-54.483-.743c-1.275-1.274-1.145-2.593.83-8.395 2.055-6.036 5.8-13.702 8.354-17.103 2.466-3.283 5.05-3.068 4.894.407-.115 2.533.006 2.532 3.52-.026 2.126-1.546 5.054-1.18 5.054.63 0 1.427.317 1.354 3.632-.84 1.82-1.203 3.627-1.808 4.953-1.656 3.35.383 3.06 2.734-.904 7.312-5.476 6.327-7.523 11.9-5.105 13.907 1.4 1.164 1.427 3.97.048 5.116-2.733 2.268-6.702-3.286-6.11-8.55.2-1.754.153-3.188-.1-3.185-.473.006-2.126 2.363-5.546 7.91-2.017 3.272-3.345 3.844-4.813 2.074-.844-1.014-.487-3.443 1.06-7.227.3-.733.2-1.29-.23-1.29-.414 0-2.023 2.57-3.574 5.707-2.808 5.68-4.242 6.933-5.964 5.21zm29.032-1.1c-.27-.27-.49-1.245-.49-2.165 0-1.892 21.734-47.28 23.773-49.646 1.493-1.732 4.036-1.68 5.155.105.832 1.33.942 1.082-6.362 14.342-2.695 4.892-4.9 9.108-4.9 9.368 0 .26.972.28 2.16.042 1.705-.34 2.577-.015 4.14 1.55 1.748 1.746 1.93 2.367 1.533 5.257-.64 4.673-3.67 10.633-7.66 15.073-4.02 4.47-7.265 6.08-10.886 5.402-1.656-.31-2.538-.192-2.538.342 0 .88-3.115 1.14-3.927.327zm12.927-8.954c4.818-5.33 7.762-13.376 4.896-13.376-2.445 0-11.743 13.583-10.583 15.46.925 1.496 3.21.658 5.688-2.083zm-291.54-5.426c-3.47-3.47 3.186-13.933 6.903-10.848 2.02 1.676.978 7.17-1.836 9.684-2.505 2.238-3.715 2.516-5.066 1.165z" fill="white" />
</svg>
