<svg height="64" width="64" xmlns="http://www.w3.org/2000/svg"><path d="M15.745 57.234c5.805 4.092 17.415 1.333 21.602-5.138 2.855-4.378 2.188-7.328-3.426-15.131-6.09-8.47-6.471-11.324-2.474-17.415 4.282-6.28 15.035-11.42 15.511-7.327.286 2.95-5.139 8.47-11.039 11.324-1.998.952-2.57 1.523-2.76 2.665-.095.76.096 1.713.476 2.188 1.333 1.237 3.712.381 8.47-3.045 6.185-4.377 9.516-9.04 9.801-13.323.096-2.188-.095-3.14-1.237-4.282-1.142-1.237-1.713-1.522-4.187-1.713-4.092-.285-7.898 1.047-12.751 4.758-5.805 4.378-8.946 8.85-9.707 13.99-.285 1.998-.285 4.472 0 5.519.286 1.046 2.38 4.472 4.568 7.612 4.663 6.567 5.52 8.755 4.187 11.325-1.047 1.903-3.616 3.806-6.852 4.663-3.901 1.142-7.613 0-8.47-2.665-.57-2.189-.285-2.855 2.285-4.568 1.903-1.332 2.379-1.903 2.188-2.854-.475-2.57-4.282-2.284-7.517.475-3.521 3.426-3.045 9.802 1.332 12.942z" fill="#007333"/></svg>
