<svg height="64" viewBox="0 0 64 64" width="64" xmlns="http://www.w3.org/2000/svg"><path d="m15.744981 57.234367c5.804904 4.09195 17.414634 1.332261 21.601752-5.138763 2.854851-4.377419 2.188709-7.327446-3.425838-15.130726-6.09035-8.469398-6.47099-11.324253-2.474211-17.414608 4.282282-6.280689 15.035589-11.419422 15.5114-7.327473.285473 2.95002-5.138737 8.469399-11.03878 11.324253-1.998409.951622-2.569382 1.522595-2.759689 2.664547-.09517.761284.095165 1.712906.475807 2.188714 1.332264 1.237121 3.711311.380641 8.469398-3.045159 6.185524-4.377453 9.51619-9.040382 9.801663-13.322658.095165-2.188744-.095139-3.140362-1.237099-4.282288-1.141945-1.237122-1.712898-1.522598-4.187111-1.712933-4.091976-.285469-7.898449 1.046791-12.751686 4.758099-5.804874 4.377445-8.945232 8.850063-9.706514 13.988796-.285473 1.998406-.285473 4.472592 0 5.519383.285474 1.046783 2.379045 4.472618 4.567754 7.612945 4.662953 6.566162 5.51941 8.754906 4.187146 11.324253-1.046788 1.903241-3.616166 3.806477-6.851664 4.662953-3.901646 1.141926-7.612949 0-8.469425-2.664547-.570954-2.188709-.285475-2.854855 2.283903-4.567753 1.903236-1.332264 2.379051-1.903244 2.188711-2.854858-.475807-2.569382-4.282282-2.283883-7.517752.475807-3.520999 3.425834-3.04519 9.801658 1.332235 12.942016z" fill="#007333"/></svg>
