<?xml version="1.0" encoding="UTF-8" standalone="no"?>
<!-- Created with Inkscape (http://www.inkscape.org/) -->
<svg id="svg3372" xmlns:rdf="http://www.w3.org/1999/02/22-rdf-syntax-ns#" xmlns="http://www.w3.org/2000/svg" height="402.56" viewBox="0 0 1124.7875 402.55588" width="1124.8" version="1.1" xmlns:cc="http://creativecommons.org/ns#" xmlns:dc="http://purl.org/dc/elements/1.1/">
 <metadata id="metadata3378">
  <rdf:RDF>
   <cc:Work rdf:about="">
    <dc:format>image/svg+xml</dc:format>
    <dc:type rdf:resource="http://purl.org/dc/dcmitype/StillImage"/>
    <dc:title/>
   </cc:Work>
  </rdf:RDF>
 </metadata>
 <path id="path3517" d="m164.65 401.07c-5.6117-2.0561-9.7072-5.6558-12.534-11.017-2.4095-4.5698-2.5646-5.5893-2.5264-16.6.0366-10.529.30528-12.403 2.6227-18.289 9.1104-23.139 30.671-43.605 73.606-69.868 9.7244-5.9484 12.416-8.4546 12.416-11.56 0-2.9965-2.5751-2.8272-9.4707.62251-5.1362 2.5695-7.8756 3.3648-11.536 3.3491-12.734-.0547-21.224-10.227-21.224-25.427 0-23.657 20.274-63.945 44.479-88.386 24.534-24.774 50.765-30.183 59.263-12.22 2.2562 4.7691 2.4782 6.1352 2.0979 12.905-.23395 4.164-1.1913 9.957-2.1275 12.873-1.6912 5.2684-1.6892 5.319.31666 7.869 1.1103 1.4116 2.0188 3.4719 2.0188 4.5785s-2.3845 6.0119-5.2988 10.901c-6.5367 10.965-19.102 36.396-19.102 38.66 0 1.148.72308 1.6671 2.322 1.6671 4.2816 0 20.125-20.409 29.921-38.542 4.8961-9.0635 7.4233-11.857 11.456-12.664 3.5131-.70261 7.5197 2.2129 8.3716 6.0919 1.191 5.4228-3.5239 16.734-14.108 33.844-12.496 20.201-28.378 36.851-52.58 55.123l-7.5785 5.7215-7.3969 18.148c-18.888 46.342-37.797 76.436-54.885 87.35-9.6736 6.1786-20.094 7.9574-28.524 4.8689zm18.076-26.137c3.7464-1.9374 9.7677-8.7954 15.663-17.84 6.5712-10.081 19.438-35.665 19.026-37.83-.67926-3.5638-4.0288-2.153-12.218 5.1464-15.221 13.566-26.731 28.503-29.961 38.878-2.1334 6.8546-2.1702 8.2168-.29443 10.895 1.6874 2.4092 4.1225 2.6438 7.7845.75012zm53.008-129.11c5.9888-5.6023 12.905-14.846 18.046-24.119 2.4517-4.4223 2.6083-5.2271 1.688-8.6752-1.2118-4.5399-.53043-6.1298 5.2533-12.258 5.3118-5.6286 8.9653-11.012 12.274-18.085 4.9869-10.661 4.6045-14.017-1.4248-12.504-5.25 1.3177-20.438 17.889-30.739 33.54-10.904 16.566-17.611 32.588-17.611 42.066v5.6605h3.2503c2.6778 0 4.3096-.99087 9.2636-5.6251zm-229.53 73.15c-4.6149-2.4366-6.6869-6.5186-6.1245-12.066.66724-6.5818 5.4359-17.632 21.093-48.879 7.8881-15.742 14.342-29.164 14.342-29.826 0-2.4466-3.0722-2.2431-9.2706.6139-13.077 6.0275-20.761 2.1713-20.761-10.419 0-8.66.41786-8.9672 32.285-23.732l22.616-10.479 15.126-23.294c40.46-62.306 72.08-105.05 94.16-127.28 13.311-13.4 17.511-16.225 24.023-16.154 6.635.0719 11.342 2.5386 13.713 7.1864 3.3103 6.4887 2.1281 15.973-5.1097 40.992-9.1433 31.606-17.724 70.871-16.298 74.585.43655 1.1376 2.299 1.4316 9.0717 1.4316 10.279 0 13.411 1.2912 15.03 6.1951 2.3703 7.1821-.66197 15.604-6.7522 18.753-1.5504.80176-6.9017 1.8896-11.892 2.4174-4.9899.5278-9.6075 1.4712-10.261 2.0965-1.3987 1.3377-2.9919 10.817-6.2472 37.17-4.0544 32.822-5.4714 50.437-5.6379 70.084l-.1604 18.937-6.7533 6.2525-6.7533 6.2525-3.9915-1.9539c-7.8447-3.8402-10.95-11.964-11.695-30.594-.59444-14.867.6336-33.41 4.0709-61.47 1.2962-10.581 2.5977-22.723 2.8923-26.981.49603-7.1714.40387-7.7424-1.2494-7.7424-.98169 0-7.2704 2.0509-13.975 4.5576-6.7045 2.5067-20.812 7.668-31.351 11.47-17.598 6.348-19.347 7.1822-21.435 10.223-3.1708 4.6183-36.89 70.327-43.11 84.008-8.2749 18.201-13.944 26.185-20.292 28.578-3.6344 1.3702-5.2455 1.2082-9.3067-.93608zm124.1-161.01c11.614-3.9458 21.638-7.6554 22.276-8.2436 1.0334-.95275 19.017-71.114 19.017-74.193 0-.68422-.69568-1.511-1.546-1.8373-3.504-1.3446-17.324 16.558-45.501 58.942-17.348 26.095-19.673 30.205-18.021 31.857 1.1005 1.1005 2.2877.77468 23.775-6.5256zm385.2 128.77c-3.8882-1.6936-7.6583-6.3916-8.9537-11.157-2.5536-9.395 5.6635-34.259 28.907-87.47 5.4113-12.388 9.8502-23.496 9.8641-24.684.0139-1.1885-.85195-3.0946-1.9242-4.236-5.0517-5.3773-5.8693-12.921-1.9416-17.914 2.7202-3.4582 5.1908-4.5579 11.634-5.1781l5.6309-.54207 3.4728-6.5693c4.8786-9.2286 24.208-50.676 25.126-53.876 1.3158-4.5881-.11294-5.5035-5.567-3.5664-5.7881 2.0557-10.578 1.0927-14.97-3.0096-5.4377-5.0796-3.6831-13.022 4.7615-21.551 5.4832-5.5386 12.299-10.633 24.088-18.007l9.8539-6.1628 1.7787-6.4931c.97829-3.5712 2.8202-7.8585 4.093-9.5273 4.4351-5.8148 13.673-5.9048 19.389-.18903 3.3176 3.3176 4.2884 3.3429 15.125.39448 32.913-8.9546 59.859-.87071 71.089 21.327 8.3222 16.449 7.2248 39.817-2.8828 61.386-17.731 37.837-55.486 67.658-99.759 78.795-7.601 1.9122-12.804 2.5237-24.85 2.9211-9.5232.31414-15.558.89692-16.096 1.5542-.72249.88403-10.149 23.635-28.236 68.153-1.9924 4.9036-5.6166 15.039-8.054 22.523-5.429 16.671-7.1538 20.204-11.013 22.557-3.4882 2.1269-6.5386 2.278-10.567.52359zm103.75-147.82c22.079-7.4258 43.663-22.953 60.945-43.843 13.202-15.958 19.799-29.521 20.478-42.101.38744-7.172.27866-7.6816-2.4321-11.394-1.8452-2.527-4.7487-4.8245-8.3022-6.5693-5.2241-2.5652-6.0221-2.68-18.134-2.6101-14.35.0829-22.253 1.9443-36.811 8.6702l-7.8576 3.6302-14.908 35.575c-22.174 52.916-24.806 59.562-24.203 61.133.46474 1.2111 2.2453 1.3623 11.43.97081 8.9491-.38146 12.462-.99582 19.795-3.4622zm-304.8 146.32c-3.1458-1.918-4.9212-5.0964-4.8809-8.7381.013-1.1766 2.8238-5.2501 6.5955-9.5583 12.772-14.589 25.329-34.084 31.374-48.709 5.9824-14.473 6.383-25.387 1.2874-35.074l-2.6993-5.1315 2.9476-4.8126c7.5608-12.345 16.678-21.178 23.376-22.649 4.0088-.88047 10.609 2.3282 12.077 5.8706.96309 2.3251.92347 3.6742-.2211 7.5284-.98707 3.3238-1.1022 4.9879-.39418 5.6959 1.3985 1.3985 3.2783.23033 11.284-7.0125 9.2902-8.4045 20.996-17.171 25.758-19.289 3.5457-1.5775 4.2793-1.6216 7.1337-.42894 5.2782 2.2053 9.127 9.1948 7.6411 13.876-.37475 1.1807-5.7974 7.452-12.05 13.936-11.768 12.203-14.363 15.735-13.4 18.244 1.4415 3.7564 7.797 1.1882 23.41-9.46 7.4488-5.08 10.921-6.9001 13.164-6.9001 6.2258 0 10.169 5.6356 8.173 11.682-1.4837 4.4956-8.8925 12.427-18.065 19.338-13.151 9.9096-23.423 14.027-34.998 14.027-8.9796 0-14.029-2.5656-17.208-8.7444-1.4354-2.7892-2.8837-4.3943-3.9651-4.3943-2.0676 0-13.452 13.628-22.343 26.747-8.108 11.963-14.93 24.167-20.325 36.36-2.3422 5.2937-5.3236 11.242-6.6255 13.218-3.9604 6.0119-11.284 7.8936-17.047 4.38zm628.1-1.2406c-5.1403-2.0114-6.78-3.3494-9.6522-7.8762-7.0034-11.038-9.3069-28.68-5.8958-45.156 1.1044-5.3342 2.8371-11.88 3.8505-14.546 2.2253-5.8548 2.3103-7.7526.38044-8.4932-.94262-.36171-2.6234.68757-4.725 2.9496-4.1912 4.5114-15.003 20.387-19.648 28.85-7.4124 13.506-10.859 18.276-14.93 20.662-5.0416 2.9546-8.7374 2.9502-13.108-.0155-5.0805-3.4477-6.3688-3.0704-8.5356 2.5002-2.3051 5.9262-6.0934 8.2923-13.277 8.2923-11.032 0-21.489-8.9378-25.285-21.612-2.214-7.3913-4.212-7.5135-9.7323-.59541-17.422 21.833-41.663 20.156-48.991-3.3909-5.4716-17.58 3.7429-49.24 22.674-77.904 22.569-34.173 53.857-50.258 72.632-37.34 7.0418 4.8449 9.3683 11.951 6.9966 21.37-.83418 3.3128-.81569 5.3408.0806 8.8381 1.4394 5.6162.57234 8.7587-5.1492 18.663-4.6815 8.1043-11.502 24.619-14.591 35.33-3.015 10.454-3.088 23.089-.15717 27.198 1.1512 1.6139 3.5592 3.6301 5.3511 4.4804 1.7919.85033 4.5389 2.6238 6.1045 3.9412 4.1919 3.5273 6.0402 2.7254 6.7356-2.9221.83836-6.8088 4.3655-15.074 17.238-40.391 21.505-42.297 32.948-60.029 40.849-63.301 3.8839-1.6088 8.562-.48068 11.733 2.8294 2.1951 2.2912 2.7596 3.8306 3.0926 8.4346.53671 7.4199 1.8171 7.3824 11.743-.34366 13.833-10.767 23.934-15.343 30.105-13.639 6.1321 1.6932 9.3579 8.81 7.2231 15.936-.6221 2.0764-6.8775 11.333-14.522 21.489-14.518 19.288-22.005 32.31-26.453 46.007-2.2597 6.959-2.6007 9.5403-2.6716 20.226-.081 12.168-.06 12.288 3.0937 18.3 4.7552 9.0638 5.1071 10.929 2.9156 15.456-2.9088 6.0089-9.0349 8.2948-15.475 5.7746zm-131.25-54.342c6.6374-6.2773 11.982-15.003 24.87-40.607 5.7162-11.356 11.824-22.653 13.572-25.106 3.6157-5.0727 3.7914-5.9773 1.6258-8.3702-3.267-3.6099-10.643-1.7799-18.745 4.6505-10.858 8.6186-27.509 36.312-32.131 53.441-2.2026 8.1629-2.6391 18.013-.87638 19.776 2.5042 2.5042 6.3551 1.2575 11.685-3.7828zm-361.64 46.24c-9.042-5.5132-7.7309-17.134 5.9172-52.447 5.7292-14.824 23.353-50.243 30.314-60.922 6.1928-9.5012 13.185-17.499 17.043-19.494 4.3507-2.2498 10.569.63732 12.782 5.9349 1.8161 4.3464.82385 6.9905-8.7624 23.351-18.568 31.689-28.636 55.156-36.119 84.192-1.6119 6.2545-3.7895 12.94-4.8391 14.857-3.2938 6.0156-10.584 8.0371-16.336 4.5298zm252.82-13.14c-4.2004-1.3496-8.931-5.4507-11.205-9.7138-3.208-6.0146-2.8496-16.734 1.0365-31.001 13.662-50.156 60.864-142.93 94.372-185.49 14.588-18.528 25.424-28.612 36.255-33.736 7.2565-3.4329 12.669-3.7002 18.432-.91038 5.1 2.4689 7.455 5.4543 9.2948 11.783 1.3044 4.487 1.308 5.771.0354 12.519-3.7812 20.048-20.465 50.431-47.713 86.888-16.518 22.101-23.497 29.961-50.868 57.287l-26.423 26.38-4.4852 13.511c-5.1179 15.417-6.0329 22.712-2.9049 23.16 4.8631.6959 16.734-12.535 27.196-30.31 7.335-12.463 12.247-16.101 18.337-13.578 3.7527 1.5544 5.9177 5.7948 5.1226 10.033-2.1692 11.563-24.563 43.579-37.676 53.864-10.689 8.3837-21.166 11.773-28.806 9.3186zm62.771-134.48c25.411-29.571 58.511-82.603 58.574-93.848.0126-2.2268-.35964-2.5808-2.713-2.5808-6.9152 0-28.454 29.87-51.43 71.324-11.89 21.453-17.091 31.953-16.539 33.393 1.1532 3.0052 4.1874.928 12.107-8.2884zm247.66 132.99c-9.7878-3.5982-15.554-12.581-16.175-25.199-.9983-20.279 6.7406-46.113 23.76-79.314 6.4277-12.539 6.6197-14.351 1.6334-15.413-6.7215-1.4316-12.417-8.2054-11.043-13.133 2.0526-7.3606 4.8793-8.9083 22.764-12.464l13.397-2.6633 5.7209-8.9427c16.086-25.145 30.543-42.69 37.457-45.456 3.5435-1.4178 4.0558-1.4138 7.1534.056 1.835.87079 4.1296 2.884 5.099 4.4738 3.6033 5.909 1.7084 12.182-7.5346 24.945-5.0795 7.0135-5.8266 8.6183-4.7917 10.293.6077.98346 1.6778.98276 5.7786-.004 2.768-.66591 8.2001-1.2426 12.071-1.2815 7.7705-.0782 11.998 1.5188 14.622 5.5228 2.0412 3.1153 2.6054 8.9137 1.1342 11.657-2.3613 4.4025-5.5684 5.7803-17.719 7.6125-6.4134.96707-16.725 3.3185-22.914 5.2253-6.1897 1.9068-13.08 3.909-15.311 4.4492-3.8889.94145-4.3133 1.4127-10.236 11.366-18.804 31.603-34.039 69.304-34.039 84.237 0 6.5176 1.1583 8.2643 5.4802 8.2643 7.7406 0 17.558-9.4158 31.313-30.031 4.6493-6.9682 9.3204-13.613 10.38-14.767 4.305-4.6843 13.278-3.2917 15.647 2.4284.9882 2.3859.9264 3.6158-.3787 7.5454-3.463 10.426-21.055 34.782-33.917 46.956-10.499 9.9378-19.408 14.5-28.926 14.813-4.0666.13353-8.1056-.32157-10.427-1.1749zm-493.48-152.54c-3.3888-2.6656-5.2694-6.5999-5.2694-11.024 0-4.6942 6.0519-17.007 11.277-22.942 4.9331-5.6044 12.799-9.5669 17.311-8.7205 4.3389.81398 8.5668 4.5054 9.9458 8.6839 2.9332 8.8878-6.0635 25.669-17.836 33.269-5.2556 3.3928-11.66 3.6973-15.428.73361z" fill="#007333"/>
</svg>
