<?xml version="1.0" encoding="utf-8"?>
<!-- Generator: Adobe Illustrator 19.1.0, SVG Export Plug-In . SVG Version: 6.00 Build 0)  -->
<svg version="1.1" id="Ebene_1" xmlns="http://www.w3.org/2000/svg" xmlns:xlink="http://www.w3.org/1999/xlink" x="0px" y="0px"
	 viewBox="-522 358.2 227.7 58.5" style="enable-background:new -522 358.2 227.7 58.5;" xml:space="preserve">
<style type="text/css">
	.st0{fill:#007333;}
</style>
<g>
	<path class="st0" d="M-411.5,413c1,1.3,2.5,1.6,3.4,0.8c0.3-0.3,1.1-1.9,1.6-3.6c0.6-1.6,2.6-6.6,4.5-11l3.5-8.1l1.8,0.2
		c2.9,0.4,8.9-0.8,12.8-2.7c4.6-2.2,8.6-5.5,11.7-9.6c2-2.8,2.5-3.9,3.3-7.7c0.8-4.1,0.8-4.8-0.2-7.1c-0.6-1.6-1.8-3.1-2.8-3.8
		c-2.4-1.6-7.2-2.2-11-1.4c-2,0.5-3.2,0.5-3.5,0.1c-0.2-0.3-1.1-0.7-2-0.9c-1.2-0.2-1.6,0.1-2.3,1.6c-0.5,1.2-2.2,2.9-4.9,4.9
		c-4.2,3-5.1,4.5-3.7,6.1c0.5,0.5,1.4,0.8,2.7,0.7l1.9-0.1l-3.2,6.3c-2.9,6-3.3,6.4-5.2,6.8c-2.2,0.6-2.9,2.2-1.6,4.1
		c0.6,0.9,0.4,1.8-2.7,8.7C-411.3,406.3-412.7,411.4-411.5,413L-411.5,413z M-387,366.5c0.9-0.8,5.5-2.3,8-2.5c3-0.2,6,1.1,6.5,3
		c1.3,4.7-7.4,14.7-15.5,17.6l0,0c-3.9,1.5-7.7,1.8-7.5,0.7C-395.3,384.1-387.7,367.1-387,366.5z"/>
	<path class="st0" d="M-378.8,408.5L-378.8,408.5c2.5,3.6,7.7,1.2,12.4-5.7c3.2-4.7,3.6-6.4,1.5-6.7c-1.1-0.2-1.9,0.4-4.1,3.6
		c-2.6,3.5-4.4,5.1-5.1,4.3c-0.2-0.2,0.3-1.9,0.8-3.7c1-2.9,1.6-3.8,5.7-7.6c10.9-10.2,19.9-22.7,20.9-29.3c0.6-3.3-0.1-4.4-2.9-4.8
		c-1.8-0.2-2.6,0-4.7,1.7c-6.3,4.8-16.2,20.6-22.1,35.3C-379.3,402.3-380.1,406.7-378.8,408.5z M-355.9,367.7
		c2.8-3.4,4.9-4.4,3.9-1.7c-1.5,4-7.2,12.2-13.1,19l0,0c-1,1.1-1.8,1.5-1.7,0.5C-366.6,384.3-358.2,370.5-355.9,367.7z"/>
	<path class="st0" d="M-363.7,403c-1,7.1,4.2,9.9,9.2,5l2.1-2.1l0.6,2c0.5,2,2.7,4.1,4.5,4.4c0.5,0.1,1.6-0.4,2.4-1.1s1.8-1.1,2-0.9
		c0.9,0.8,3.1-1.3,6.4-6.1c3.5-5,5.4-6.7,3.9-3.4c-1,2.3-1.7,7.7-1.3,9.7c0.2,0.9,0.8,2.3,1.4,3.1l0,0c1.2,1.7,3.3,2,4.5,0.6
		c0.6-0.7,0.5-1.4-0.2-3.2c-1.8-4.6-0.2-9.8,5.6-17c3.1-4,3.6-5.6,2.1-6.8c-1.3-0.9-3.7-0.1-6.7,2.1c-1.2,0.9-2.3,1.7-2.5,1.6
		s-0.2-0.8-0.1-1.6c0.3-2.1-1.4-3.1-3.3-1.8c-1.7,1.2-5,6.2-8.8,13.9c-3,5.9-3.3,6.3-4.2,5.6c-0.5-0.4-1.1-1-1.3-1.4
		c-0.7-1.3,0.5-6.1,2.4-10c1.5-3,2-4.6,2-6.6c0-4.1-0.1-4.5-2-5.4C-351.3,380.9-362.2,392-363.7,403z M-347.8,389.2
		c0.6,0.5-3.2,7.8-6.6,12.6l0,0c-4.3,6-5.7,2.2-2-5C-353.5,391.2-349.6,387.8-347.8,389.2z"/>
	<path class="st0" d="M-320.7,406.8c0.1,0.9,0.6,2.1,1.1,2.7l0,0c1.2,1.6,4.5,2.1,7,1c2.4-1,5.4-4.1,8.2-8.3
		c2.3-3.6,2.4-4.8,0.3-5.1c-1.1-0.2-1.8,0.4-3.9,3.4c-2.4,3.3-5.4,6-6.7,5.8c-2-0.3,0.7-8.4,5.1-15.8c2.7-4.6,3.8-5.3,9.2-6.1
		c5.4-0.8,5.9-1,6.1-2.5c0.3-2-1.2-2.8-4.2-2.6c-1.3,0.1-2.6,0.2-2.8,0.2c-0.2,0,0.3-1,1.3-2.2c1.9-2.5,2.3-4.2,1.3-5.3
		c-1.6-1.7-3.4-0.4-9.1,7.1c-2,2.6-2.4,2.9-5.3,3.4c-2.2,0.4-3.4,0.9-3.7,1.6c-0.7,1.2,0.2,2.8,1.6,3s1.3,0.6-1.5,5.9
		C-319.1,397.6-321,404-320.7,406.8z"/>
	<path class="st0" d="M-433.9,402.7c-0.6,4.2,0.9,7.6,4.1,8.9l0,0c3.1,1.3,8.1,0.4,9.6-1.7c2.6-3.5,2.5-6.5-0.2-10.6
		c-2.3-3.7-2.9-5.2-2.2-6.9c0.9-2.4,5.2-4.9,7.6-4.6c2.4,0.3,0.4,2.9-3,3.9c-2.4,0.6-3.5,1.7-3.2,3.2c0.5,3,8.2,0.6,11.3-3.6
		c1.3-1.8,1.8-5,0.8-6.2c-2.5-3.3-10.2-2.4-15.2,2c-4.3,3.7-4.8,8-1.4,12.8c2.6,3.7,3,5.6,1.8,6.9c-1.2,1.4-2.6,1.2-4.3-0.6
		c-1.2-1.3-1.3-1.6-0.7-4.8c0.6-3.2,0.7-3.3-0.8-3.7C-431.8,397-433.4,399.1-433.9,402.7z"/>
	<path class="st0" d="M-445.4,401.1c2.3,3.4,2.7,5.3,1.2,6.5c-1.1,0.8-3,0.4-4.3-1c-1-1.1-1.1-1.7-0.7-4.8c0.4-3.2,0.4-3.5-0.7-3.8
		c-1.8-0.5-3.5,1.8-4,5.5c-0.5,3.6,0.3,5.7,2.7,7.7l0,0c4.4,3.6,12.1,0.9,12.8-4.5c0.4-2.6,0-4-2.4-7.4c-2.5-3.7-2.8-5.3-1.2-7.5
		c2.3-3.4,8.6-5.2,7.7-2.3c-0.2,0.8-1.4,1.6-3.5,2.4c-2.7,1-3.2,1.4-3.1,2.6c0,1.3,0.2,1.6,2,1.7c5.8,0.6,12.5-7.2,9.4-11.3
		c-2.2-2.9-10.5-1.7-14.8,2.1C-449.1,391.1-449.3,395.4-445.4,401.1z"/>
	<path class="st0" d="M-449.1,379.4c0.9,1.2,1.8,1.1,4-0.3c2.4-1.6,3.7-5.6,2.4-7C-445.2,369.3-451.3,376.4-449.1,379.4
		L-449.1,379.4z"/>
	<path class="st0" d="M-463.4,412c0.7,1.1,2.9,1.6,3.6,0.8c0.2-0.3,1.3-3.2,2.3-6.4c1-3.4,3.2-8.2,4.9-11.4c1.7-3,3.1-6,3.2-6.5
		c0.2-1.2-1.7-2.1-2.9-1.5C-456.1,389.4-465,409.3-463.4,412L-463.4,412z"/>
	<path class="st0" d="M-491.8,412.1L-491.8,412.1c1,1.1,1.8,1.5,2.6,1.4c1.8-0.2,4.5-2.3,6.5-4.9l1.7-2.2l0.5,2.8
		c0.4,2.2,0.8,3,1.9,3.5c3.1,1.6,7-1.2,11.3-8.2c4-6.6,6.7-14.4,6-17.4c-0.2-1-2.1-1.4-3.3-0.8c-1,0.5-2.3,3.5-2.7,6.6
		c-0.4,2.9-3.6,10-5.7,12.5c-3.2,3.9-3-0.1,0.5-7.3c2.8-6,3-6.5,1.3-7.3c-2.2-0.9-3.6,0.2-7.5,5.8c-4.2,5.9-7.6,9.7-8.5,9.6
		c-0.4-0.1-0.4-0.5,0-1.2c1.6-3.6,3.6-6.8,5.8-9.5c1.3-1.6,2.4-3.5,2.4-4.1c0-1.5-1.5-2.7-2.9-2.1c-3.5,1.5-9.7,11.9-10.7,17.8
		C-493.1,410.3-493.1,410.6-491.8,412.1z"/>
	<path class="st0" d="M-518.2,414.7L-518.2,414.7c6.1,4.3,18.3,1.4,22.7-5.4c3-4.6,2.3-7.7-3.6-15.9c-6.4-8.9-6.8-11.9-2.6-18.3
		c4.5-6.6,15.8-12,16.3-7.7c0.3,3.1-5.4,8.9-11.6,11.9c-2.1,1-2.7,1.6-2.9,2.8c-0.1,0.8,0.1,1.8,0.5,2.3c1.4,1.3,3.9,0.4,8.9-3.2
		c6.5-4.6,10-9.5,10.3-14c0.1-2.3-0.1-3.3-1.3-4.5c-1.2-1.3-1.8-1.6-4.4-1.8c-4.3-0.3-8.3,1.1-13.4,5c-6.1,4.6-9.4,9.3-10.2,14.7
		c-0.3,2.1-0.3,4.7,0,5.8s2.5,4.7,4.8,8c4.9,6.9,5.8,9.2,4.4,11.9c-1.1,2-3.8,4-7.2,4.9c-4.1,1.2-8,0-8.9-2.8
		c-0.6-2.3-0.3-3,2.4-4.8c2-1.4,2.5-2,2.3-3c-0.5-2.7-4.5-2.4-7.9,0.5C-523.3,404.7-522.8,411.4-518.2,414.7z"/>
</g>
</svg>
