<?xml version="1.0" encoding="utf-8"?>
<!-- Generator: Adobe Illustrator 19.1.0, SVG Export Plug-In . SVG Version: 6.00 Build 0)  -->
<svg version="1.1" id="Ebene_1" xmlns="http://www.w3.org/2000/svg" xmlns:xlink="http://www.w3.org/1999/xlink" x="0px" y="0px"
	 viewBox="-57 332.4 353.3 129.6" style="enable-background:new -57 332.4 353.3 129.6;" xml:space="preserve">
<style type="text/css">
	.st0{fill:#007333;}
</style>
<path class="st0" d="M118.6,432.9c1.8,1.8,4.3,1.9,5.6,0.4c0.5-0.6,1.3-3.3,1.9-6c0.5-2.7,2.6-11,4.7-18.4l3.7-13.5h2.9
	c4.7,0,13.8-3.3,19.6-7.1c6.8-4.5,12.3-10.5,16.2-17.8c2.5-4.8,3.1-6.8,3.4-12.9c0.3-6.6,0.2-7.6-1.9-11.2c-1.4-2.3-3.5-4.5-5.3-5.4
	c-4.1-2-11.9-1.8-17.6,0.3c-3,1.2-4.9,1.5-5.5,0.9c-0.5-0.5-2-0.9-3.3-0.9c-2,0-2.6,0.5-3.3,3.1c-0.5,2-2.9,5-6.7,8.7
	c-5.9,5.7-7.1,8.3-4.5,10.4c0.8,0.7,2.5,0.9,4.4,0.5l3.1-0.6l-3.6,10.7c-3.4,10-3.8,10.8-6.6,11.9c-3.4,1.4-4,4.1-1.7,6.7
	c1.2,1.4,1,2.7-2.3,14.2C117.3,422.1,116.3,430.6,118.6,432.9L118.6,432.9z M146.8,354c1.1-1.5,8.1-4.8,12-5.7
	c4.6-1.1,9.7,0.5,11,3.3c3.2,7-8.5,24.9-20.4,31.1l0,0c-5.9,3.1-11.7,4.4-11.7,2.7C137.7,383.6,145.9,355.2,146.8,354z"/>
<path class="st0" d="M169,418.3L169,418.3c4.6,5.1,12.3,0.2,18.3-11.7c4-8.1,4.3-10.8,0.9-10.8c-1.8,0-2.8,1.1-5.8,6.6
	c-3.3,6.1-5.9,9.1-7,8c-0.3-0.3,0-2.9,0.5-6c0.9-4.8,1.7-6.4,7.2-13.2c15-18.5,26.3-40.2,26.5-50.9c0.1-5.3-1.2-6.9-5.6-6.9
	c-2.9,0-4,0.6-7,3.7c-8.8,9.1-20.9,36.1-27.1,60.5C167,408.9,166.7,415.8,169,418.3z M196.2,349.1c3.7-6,6.7-8,5.7-3.6
	c-1.6,6.5-8.6,20.7-16.3,32.9l0,0c-1.3,2-2.6,2.6-2.6,1.2C182.9,377.7,193.2,354.1,196.2,349.1z"/>
<path class="st0" d="M51.9,388.1c1.6,1.6,3.1,1.3,6.1-1.4c3.4-3,4.6-9.6,2.2-11.7C55.7,371.4,47.7,384,51.9,388.1L51.9,388.1z"/>
<path class="st0" d="M62.4,421.6c4.4,4.9,5.4,7.9,3.3,10c-1.6,1.6-4.7,1.3-7-0.6c-1.8-1.5-2.1-2.5-2.1-7.3c0-5.1-0.2-5.6-1.9-5.9
	c-3-0.4-5.1,3.6-5.1,9.6c0,5.7,1.7,8.9,6,11.6l0,0c7.7,4.7,19.2-1.3,19.2-9.9c0-4.3-1-6.2-5.5-11.2c-4.9-5.3-5.6-7.6-3.6-11.6
	c2.8-5.8,12.3-10,11.6-5.2c-0.2,1.4-1.8,2.8-5,4.5c-4.1,2.2-4.7,2.8-4.4,4.9c0.2,2.1,0.6,2.3,3.4,2.3c9.4-0.3,18-14.2,12.4-19.9
	c-4-4-16.9-0.2-22.9,6.7C54.5,406.5,55,413.5,62.4,421.6z"/>
<path class="st0" d="M191.7,406.4c0,11.4,8.9,14.8,15.7,5.9l2.9-3.7l1.3,3.1c1.3,3,5.2,5.9,8.1,5.9c0.8,0,2.4-1,3.5-2.3
	c1.2-1.3,2.5-2.1,3-1.8c1.7,1,4.6-2.7,8.8-10.9c4.3-8.6,7.1-11.7,5.5-6.1c-1.1,3.9-1.1,12.4,0.1,15.5c0.5,1.4,1.8,3.4,2.9,4.5h0
	c2.2,2.3,5.7,2.3,7.2,0c0.7-1.1,0.5-2.3-1-5c-3.9-6.9-2.4-15.4,5-28c4-6.9,4.5-9.7,1.9-11.1c-2.2-1.2-5.8,0.5-10.2,4.9
	c-1.7,1.7-3.3,3.1-3.6,3.1c-0.3,0-0.5-1.2-0.5-2.6c0-3.4-2.9-4.5-5.5-2.1c-2.5,2.2-6.4,10.8-10.9,23.9c-3.4,9.9-3.8,10.7-5.4,9.8
	c-0.9-0.5-2-1.4-2.4-1.9c-1.4-2-0.6-9.7,1.6-16.2c1.7-5.1,2.1-7.7,1.7-10.8c-0.9-6.4-1.2-7-4.4-8.1
	C206.5,368.9,191.7,388.8,191.7,406.4z M213.7,381.1c1.1,0.7-3.3,12.9-7.6,21.4h0c-5.4,10.4-8.6,4.6-4.2-7.5
	C205.2,385.6,210.6,379.2,213.7,381.1z"/>
<path class="st0" d="M260.3,402.9c0.3,1.3,1.4,3.1,2.3,4.1l0,0c2.3,2.3,7.5,2.3,11.2,0c3.6-2.2,7.7-7.7,11.1-14.9
	c2.9-6.1,2.8-8.2-0.6-8.2c-1.8,0-2.8,1.1-5.5,6.2c-3,5.7-7.3,10.6-9.3,10.6c-3.1,0-0.8-13.4,4.5-26c3.3-7.8,4.8-9.1,13.1-11.6
	c8.2-2.4,9-2.9,9-5.3c0-3.1-2.6-4.3-7.3-3.2c-2.1,0.5-4.1,0.9-4.4,0.9c-0.3,0,0.4-1.7,1.5-3.7c2.5-4.3,2.7-7.1,0.9-8.6
	c-2.9-2.4-5.4,0.2-12.7,13.3c-2.5,4.5-3.2,5.1-7.6,6.5c-3.3,1-5,2.1-5.4,3.3c-0.7,2.2,0.9,4.4,3.2,4.4c2.2,0,2.1,0.6-1.1,9.6
	C260.7,388,259.2,398.5,260.3,402.9z"/>
<path class="st0" d="M81,421.6c0,6.7,3.2,11.7,8.5,13l0,0c5.1,1.3,12.8-1.2,14.7-4.9c3.2-6.1,2.5-10.9-2.6-16.7
	c-4.6-5.2-5.7-7.5-5-10.5c0.9-4,7-8.9,11-8.9c3.9,0,1.2,4.5-4,6.7c-3.6,1.5-5.1,3.4-4.4,5.6c1.5,4.7,13.1-0.8,16.9-8.1
	c1.7-3.2,1.6-8.2-0.1-9.9c-4.7-4.7-16.6-1.4-23.5,6.5c-5.9,6.8-5.8,13.7,0.5,20.4c4.9,5.3,6.1,8.1,4.3,10.6c-1.7,2.4-3.9,2.4-6.9,0
	c-2.2-1.8-2.4-2.3-2.1-7.3c0.3-5.3,0.3-5.4-2.1-5.7C83,412.1,81,415.8,81,421.6z"/>
<path class="st0" d="M36.6,442.7c1.3,1.6,5,1.9,5.9,0.4c0.3-0.5,1.3-5.3,2.3-10.7c0.9-5.5,3.2-13.7,5.2-19.1c2-5.2,3.6-10.1,3.6-11
	c0-2-3.2-3-5-1.6C43,405.4,33.4,438.9,36.6,442.7L36.6,442.7z"/>
<path class="st0" d="M-8.2,449.1L-8.2,449.1c1.8,1.5,3.1,2,4.4,1.6c2.7-0.8,6.6-4.6,9.2-9.2l2.3-3.9l1.4,4.3c1,3.3,2,4.5,3.7,5.2
	c5.3,1.9,10.8-3.4,15.9-15.4c4.8-11.3,7.3-24.2,5.6-28.7c-0.6-1.5-3.6-1.9-5.5-0.7c-1.6,1-2.9,6-2.9,10.9c0,4.7-3.5,16.5-6.2,20.9
	c-4.3,7-4.8,0.5-0.9-11.6c3.2-10,3.3-11,0.5-11.7c-3.6-0.9-5.5,1-10.6,10.9C3.7,432-0.9,438.8-2.4,438.8c-0.6,0-0.7-0.8-0.3-2
	c1.8-6,4.3-11.5,7.1-16.2c1.7-2.9,3-6,2.9-6.9c-0.4-2.5-3-3.9-4.9-2.7c-5.1,3.1-12.7,20.9-12.9,30.4
	C-10.7,446.5-10.5,447.1-8.2,449.1z"/>
<path class="st0" d="M-49.3,459.1L-49.3,459.1c10.6,5.5,29.2-1.8,34.6-13.6c3.7-7.9,1.9-12.6-9.2-24.2
	c-12.1-12.6-13.4-17.3-8.1-28.3c5.6-11.5,22.2-22.4,23.9-15.7c1.2,4.8-6.5,15.3-15.6,21.4c-3.2,2.1-4,3.2-4,5.2
	c0,1.4,0.6,2.9,1.4,3.4c2.6,1.6,6.1-0.3,13.3-7.1c9.2-8.8,13.7-17.2,13-24.3c-0.4-3.7-1-5.1-2.9-6.8c-2.1-1.8-3.2-2.1-7.4-1.8
	c-6.9,0.5-12.7,3.7-20.1,10.9c-8.6,8.5-12.8,16.8-12.8,25.4c0,3.4,0.6,7.5,1.3,9.2c0.7,1.7,4.9,6.9,9.4,11.6
	c9.3,9.8,11.2,13.2,9.7,17.7c-1.1,3.4-5,7-10.2,9.4c-6.2,2.8-12.6,1.8-14.5-2.5c-1.6-3.5-1.2-4.6,2.7-8.2c2.9-2.7,3.5-3.8,3-5.3
	c-1.3-4.2-7.7-2.9-12.3,2.5C-59.5,444.4-57.1,455-49.3,459.1z"/>
</svg>
