<?xml version="1.0" encoding="utf-8"?>
<!-- Generator: Adobe Illustrator 19.1.0, SVG Export Plug-In . SVG Version: 6.00 Build 0)  -->
<svg version="1.1" id="Ebene_1" xmlns="http://www.w3.org/2000/svg" xmlns:xlink="http://www.w3.org/1999/xlink" x="0px" y="0px"
	 viewBox="-0.5 332.4 234.8 84.8" enable-background="new -0.5 332.4 234.8 84.8" xml:space="preserve">
<path fill="#007333" d="M116.2,398.5c1.2,1.2,2.9,1.3,3.7,0.3c0.3-0.4,0.9-2.2,1.2-4c0.4-1.8,1.8-7.3,3.1-12.2l2.5-9h1.9
	c3.1,0,9.2-2.2,13-4.7c4.5-3,8.2-7,10.8-11.8c1.7-3.2,2-4.5,2.3-8.6c0.2-4.4,0.1-5.1-1.3-7.4c-0.9-1.6-2.3-3-3.5-3.6
	c-2.8-1.3-7.9-1.2-11.7,0.2c-2,0.8-3.3,1-3.7,0.6c-0.3-0.3-1.3-0.6-2.2-0.6c-1.3,0-1.7,0.3-2.2,2c-0.4,1.3-1.9,3.4-4.4,5.8
	c-4,3.8-4.7,5.5-3,6.9c0.6,0.5,1.6,0.6,2.9,0.3l2-0.4l-2.4,7.1c-2.2,6.7-2.5,7.2-4.4,7.9c-2.2,0.9-2.7,2.7-1.1,4.5
	c0.8,0.9,0.7,1.8-1.5,9.5C115.4,391.4,114.7,397,116.2,398.5L116.2,398.5z M135,346.1c0.8-1,5.4-3.2,8-3.8c3.1-0.7,6.5,0.3,7.3,2.2
	c2.1,4.7-5.6,16.5-13.6,20.7l0,0c-3.9,2.1-7.8,3-7.8,1.8C128.9,365.8,134.4,346.9,135,346.1z"/>
<path fill="#007333" d="M149.8,388.9L149.8,388.9c3.1,3.4,8.2,0.1,12.1-7.8c2.7-5.4,2.8-7.2,0.6-7.2c-1.2,0-1.9,0.7-3.8,4.4
	c-2.2,4.1-3.9,6-4.7,5.3c-0.2-0.2,0-2,0.3-4c0.6-3.2,1.1-4.2,4.8-8.8c9.9-12.3,17.5-26.7,17.6-33.8c0.1-3.5-0.8-4.6-3.7-4.6
	c-1.9,0-2.7,0.4-4.7,2.5c-5.9,6-13.9,24-18,40.2C148.4,382.5,148.2,387.2,149.8,388.9z M167.8,342.8c2.4-4,4.5-5.3,3.8-2.4
	c-1,4.4-5.7,13.8-10.9,21.8l0,0c-0.9,1.3-1.7,1.8-1.7,0.8C159,361.8,165.8,346.1,167.8,342.8z"/>
<path fill="#007333" d="M164.8,380.9c0,7.6,5.9,9.8,10.4,3.9l1.9-2.5l0.9,2c0.8,2,3.4,3.9,5.4,3.9c0.5,0,1.6-0.7,2.4-1.5
	c0.8-0.8,1.7-1.4,2-1.2c1.1,0.7,3.1-1.8,5.8-7.3c2.9-5.7,4.7-7.8,3.6-4.1c-0.7,2.6-0.7,8.3,0.1,10.3c0.3,0.9,1.2,2.3,1.9,3h0
	c1.5,1.6,3.8,1.6,4.8,0c0.5-0.8,0.3-1.5-0.7-3.3c-2.6-4.6-1.6-10.2,3.4-18.6c2.7-4.6,3-6.4,1.2-7.4c-1.5-0.8-3.9,0.4-6.7,3.2
	c-1.1,1.1-2.2,2.1-2.4,2.1s-0.3-0.8-0.3-1.7c0-2.2-1.9-3-3.7-1.4c-1.6,1.5-4.3,7.2-7.2,15.9c-2.3,6.6-2.5,7.1-3.6,6.5
	c-0.6-0.3-1.3-0.9-1.6-1.3c-0.9-1.3-0.4-6.5,1-10.8c1.1-3.4,1.4-5.1,1.1-7.2c-0.6-4.3-0.8-4.7-2.9-5.4
	C174.6,356,164.8,369.2,164.8,380.9z M179.4,364.1c0.7,0.4-2.2,8.6-5.1,14.2h0c-3.6,6.9-5.7,3.1-2.8-5
	C173.8,367.1,177.4,362.9,179.4,364.1z"/>
<path fill="#007333" d="M210.4,378.6c0.2,0.9,0.9,2.1,1.6,2.7l0,0c1.5,1.5,5,1.5,7.5,0c2.4-1.4,5.1-5.1,7.4-9.9
	c1.9-4.1,1.8-5.4-0.4-5.4c-1.2,0-1.8,0.7-3.6,4.1c-2,3.8-4.8,7.1-6.2,7.1c-2.1,0-0.5-8.9,3-17.3c2.2-5.2,3.2-6.1,8.7-7.7
	c5.5-1.6,6-1.9,6-3.5c0-2.1-1.7-2.8-4.8-2.1c-1.4,0.3-2.7,0.6-2.9,0.6s0.2-1.1,1-2.5c1.6-2.9,1.8-4.7,0.6-5.7
	c-1.9-1.6-3.6,0.1-8.5,8.8c-1.7,3-2.1,3.4-5.1,4.3c-2.2,0.7-3.4,1.4-3.6,2.2c-0.5,1.4,0.6,2.9,2.1,2.9c1.5,0,1.4,0.4-0.7,6.4
	C210.7,368.7,209.7,375.7,210.4,378.6z"/>
<path fill="#007333" d="M91.2,391c0,4.5,2.1,7.8,5.6,8.7l0,0c3.4,0.9,8.5-0.8,9.8-3.2c2.2-4,1.7-7.2-1.8-11.1c-3-3.5-3.8-5-3.3-6.9
	c0.6-2.6,4.7-5.9,7.3-5.9c2.6,0,0.8,3-2.6,4.5c-2.4,1-3.4,2.3-2.9,3.8c1,3.1,8.7-0.6,11.3-5.4c1.1-2.1,1.1-5.5-0.1-6.6
	c-3.1-3.1-11-1-15.6,4.3c-4,4.5-3.8,9.1,0.4,13.6c3.3,3.5,4,5.4,2.9,7c-1.1,1.6-2.6,1.6-4.6,0c-1.5-1.2-1.6-1.5-1.4-4.9
	c0.2-3.5,0.2-3.6-1.4-3.8C92.6,384.7,91.2,387.1,91.2,391z"/>
<path fill="#007333" d="M78.9,391c2.9,3.2,3.6,5.2,2.2,6.6c-1,1-3.1,0.9-4.7-0.4c-1.2-1-1.4-1.6-1.4-4.9c0-3.4-0.1-3.7-1.3-3.9
	c-2-0.3-3.4,2.4-3.4,6.4c0,3.8,1.1,5.9,4,7.7l0,0c5.1,3.1,12.8-0.8,12.8-6.6c0-2.8-0.6-4.2-3.6-7.4c-3.2-3.5-3.7-5.1-2.4-7.7
	c1.9-3.9,8.2-6.7,7.7-3.5c-0.1,0.9-1.2,1.9-3.3,3c-2.7,1.5-3.1,1.9-2.9,3.2c0.2,1.4,0.4,1.6,2.3,1.5c6.2-0.2,12-9.4,8.2-13.2
	c-2.7-2.7-11.2-0.2-15.2,4.4C73.6,381,74,385.6,78.9,391z"/>
<path fill="#007333" d="M71.9,368.8c1.1,1.1,2,0.9,4.1-0.9c2.3-2,3.1-6.4,1.5-7.7C74.5,357.6,69.1,366,71.9,368.8L71.9,368.8z"/>
<path fill="#007333" d="M61.7,405.1c0.9,1.1,3.3,1.2,3.9,0.3c0.2-0.4,0.9-3.5,1.5-7.1c0.6-3.7,2.1-9.1,3.5-12.7
	c1.3-3.4,2.4-6.7,2.4-7.3c0-1.3-2.1-2-3.3-1.1C66,380.3,59.6,402.5,61.7,405.1L61.7,405.1z"/>
<path fill="#007333" d="M31.9,409.3L31.9,409.3c1.2,1,2.1,1.3,2.9,1.1c1.8-0.5,4.4-3.1,6.1-6.1l1.5-2.6l0.9,2.9
	c0.7,2.2,1.3,3,2.5,3.4c3.5,1.2,7.2-2.3,10.6-10.3c3.2-7.5,4.9-16.1,3.7-19.1c-0.4-1-2.4-1.2-3.6-0.4c-1,0.7-1.9,4-1.9,7.3
	c0,3.1-2.3,11-4.1,13.9c-2.8,4.6-3.2,0.3-0.6-7.7c2.1-6.7,2.2-7.3,0.3-7.8c-2.4-0.6-3.7,0.7-7,7.2c-3.5,6.8-6.5,11.3-7.5,11.3
	c-0.4,0-0.5-0.5-0.2-1.3c1.2-4,2.8-7.7,4.7-10.8c1.1-1.9,2-4,1.9-4.6c-0.2-1.6-2-2.6-3.3-1.8c-3.4,2.1-8.4,13.9-8.6,20.2
	C30.3,407.6,30.4,408,31.9,409.3z"/>
<path fill="#007333" d="M4.7,415.9L4.7,415.9c7,3.6,19.4-1.2,23-9c2.5-5.3,1.3-8.4-6.1-16.1c-8-8.4-8.9-11.5-5.4-18.8
	c3.7-7.6,14.8-14.9,15.9-10.5c0.8,3.2-4.3,10.1-10.4,14.2c-2.1,1.4-2.6,2.1-2.6,3.4c0,0.9,0.4,1.9,0.9,2.3c1.7,1.1,4.1-0.2,8.8-4.7
	c6.1-5.8,9.1-11.4,8.7-16.2c-0.2-2.4-0.6-3.4-2-4.5c-1.4-1.2-2.1-1.4-4.9-1.2c-4.6,0.3-8.5,2.4-13.3,7.2c-5.7,5.7-8.5,11.1-8.5,16.9
	c0,2.2,0.4,5,0.9,6.1c0.5,1.1,3.3,4.6,6.2,7.7c6.2,6.5,7.4,8.8,6.4,11.8c-0.8,2.3-3.4,4.7-6.8,6.2c-4.1,1.9-8.4,1.2-9.7-1.6
	c-1-2.3-0.8-3.1,1.8-5.4c1.9-1.8,2.3-2.5,2-3.5c-0.9-2.8-5.1-1.9-8.2,1.7C-2.1,406.2-0.6,413.2,4.7,415.9z"/>
</svg>
